<svg width="11" height="11" viewBox="0 0 11 11" fill="none" xmlns="http://www.w3.org/2000/svg">
<g clip-path="url(#clip0)">
<path d="M10.2625 2.73921C9.7707 1.8966 9.10355 1.22945 8.26092 0.737634C7.41813 0.245845 6.49812 0 5.50016 0C4.50231 0 3.58202 0.245845 2.73938 0.737634C1.8967 1.22937 1.22955 1.89652 0.73771 2.73921C0.245845 3.58194 0 4.50224 0 5.50001C0 6.49784 0.24592 7.41798 0.737634 8.26077C1.22945 9.10338 1.8966 9.77053 2.73928 10.2624C3.58202 10.7542 4.50224 11 5.50006 11C6.49789 11 7.41821 10.7542 8.26089 10.2624C9.10353 9.7707 9.77065 9.10338 10.2624 8.26077C10.7542 7.41806 11 6.49779 11 5.50001C11 4.50214 10.7542 3.58182 10.2625 2.73921ZM6.4169 8.93752C6.4169 9.0043 6.39527 9.05925 6.35235 9.10215C6.30961 9.14507 6.25465 9.16654 6.18788 9.16654H4.81272C4.7459 9.16654 4.69097 9.14507 4.648 9.10215C4.605 9.05923 4.58353 9.0043 4.58353 8.93752V7.56236C4.58353 7.49559 4.60498 7.44063 4.648 7.39774C4.69097 7.3549 4.7459 7.33345 4.81272 7.33345H6.18788C6.25465 7.33345 6.30961 7.3549 6.35235 7.39774C6.39527 7.44066 6.4169 7.49559 6.4169 7.56236V8.93752ZM8.16066 4.70504C8.10091 4.8817 8.03414 5.02621 7.96014 5.13836C7.88617 5.25056 7.77986 5.36516 7.64135 5.48208C7.50314 5.59904 7.39325 5.68265 7.31188 5.73286C7.23086 5.78291 7.11377 5.85108 6.96116 5.93692C6.80356 6.02755 6.67358 6.14577 6.57098 6.29145C6.46832 6.43704 6.417 6.55516 6.417 6.64578C6.417 6.71276 6.39537 6.76766 6.35243 6.81061C6.30961 6.85353 6.25468 6.87497 6.18788 6.87497H4.8128C4.74597 6.87497 4.69104 6.85353 4.64807 6.81061C4.60505 6.76766 4.58366 6.71276 4.58366 6.64578V6.38795C4.58366 6.06808 4.7089 5.76836 4.95959 5.48915C5.21027 5.20982 5.48599 5.00333 5.78682 4.86964C6.01583 4.76464 6.17822 4.65718 6.27369 4.54739C6.36931 4.4376 6.41705 4.29183 6.41705 4.1105C6.41705 3.9529 6.32745 3.81208 6.14838 3.68787C5.9693 3.56378 5.76535 3.50173 5.53611 3.50173C5.28778 3.50173 5.08255 3.55904 4.92018 3.67367C4.76258 3.78818 4.55734 4.00784 4.30428 4.33244C4.26131 4.38979 4.20161 4.41851 4.1252 4.41851C4.06791 4.41851 4.02254 4.40421 3.98915 4.37564L3.0439 3.65945C2.93411 3.57349 2.91502 3.47328 2.98656 3.35867C3.59775 2.34173 4.48335 1.83326 5.64347 1.83326C6.05893 1.83326 6.46481 1.93116 6.86105 2.12694C7.25727 2.32262 7.58795 2.59957 7.85301 2.95769C8.11774 3.31568 8.25046 3.70485 8.25046 4.125C8.25011 4.33505 8.22016 4.52832 8.16066 4.70504Z" fill="#47465A"/>
</g>
<defs>
<clipPath id="clip0">
<rect width="11" height="11" fill="white"/>
</clipPath>
</defs>
</svg>
