<svg width="18" height="15" viewBox="0 0 18 15" fill="none" xmlns="http://www.w3.org/2000/svg">
<path d="M16.6797 10.9766C16.7617 10.5938 16.7617 10.1836 16.6797 9.80078L17.3906 9.39062C17.4727 9.36328 17.5 9.25391 17.4727 9.17188C17.2812 8.57031 16.9805 8.05078 16.5703 7.58594C16.5156 7.53125 16.4062 7.50391 16.3242 7.55859L15.6133 7.96875C15.3125 7.72266 14.9844 7.50391 14.6016 7.39453V6.57422C14.6016 6.46484 14.5469 6.38281 14.4648 6.38281C13.8359 6.24609 13.2344 6.24609 12.6328 6.38281C12.5508 6.38281 12.4961 6.46484 12.4961 6.57422V7.39453C12.1133 7.50391 11.7852 7.72266 11.4844 7.96875L10.7734 7.55859C10.6914 7.50391 10.582 7.53125 10.5273 7.58594C10.1172 8.05078 9.78906 8.57031 9.625 9.17188C9.59766 9.25391 9.625 9.36328 9.70703 9.39062L10.418 9.80078C10.3359 10.1836 10.3359 10.5938 10.418 10.9766L9.70703 11.3867C9.625 11.4141 9.59766 11.5234 9.625 11.6055C9.78906 12.207 10.1172 12.7266 10.5273 13.1914C10.582 13.2461 10.6914 13.2734 10.7734 13.2188L11.4844 12.8086C11.7852 13.0547 12.1133 13.2734 12.4961 13.3828V14.2031C12.4961 14.3125 12.5508 14.3945 12.6328 14.3945C13.2617 14.5312 13.8633 14.5312 14.4648 14.3945C14.5469 14.3945 14.6016 14.3125 14.6016 14.2031V13.3828C14.9844 13.2734 15.3125 13.0547 15.6133 12.8086L16.3242 13.2188C16.4062 13.2734 16.5156 13.2461 16.5703 13.1914C16.9805 12.7266 17.2812 12.207 17.4727 11.6055C17.5 11.5234 17.4727 11.4141 17.3906 11.3867L16.6797 10.9766ZM13.5625 11.7148C12.8242 11.7148 12.2227 11.1133 12.2227 10.375C12.2227 9.66406 12.8242 9.0625 13.5625 9.0625C14.2734 9.0625 14.875 9.66406 14.875 10.375C14.875 11.1133 14.2734 11.7148 13.5625 11.7148ZM6.125 7.75C8.03906 7.75 9.625 6.19141 9.625 4.25C9.625 2.33594 8.03906 0.75 6.125 0.75C4.18359 0.75 2.625 2.33594 2.625 4.25C2.625 6.19141 4.18359 7.75 6.125 7.75ZM11.6211 13.957C11.5391 13.9297 11.4844 13.875 11.4297 13.8477L11.2109 13.9844C11.0469 14.0664 10.8555 14.1211 10.6641 14.1211C10.3906 14.1211 10.0898 13.9844 9.89844 13.7656C9.37891 13.2461 8.99609 12.5625 8.77734 11.8789C8.64062 11.3867 8.83203 10.8672 9.26953 10.6211L9.48828 10.4844C9.48828 10.4297 9.48828 10.3477 9.48828 10.293L9.26953 10.1562C8.83203 9.91016 8.64062 9.39062 8.77734 8.89844C8.80469 8.81641 8.85938 8.76172 8.88672 8.67969C8.77734 8.65234 8.66797 8.625 8.55859 8.625H8.09375C7.49219 8.92578 6.83594 9.0625 6.125 9.0625C5.41406 9.0625 4.73047 8.92578 4.12891 8.625H3.66406C1.64062 8.625 0 10.293 0 12.3164V13.4375C0 14.1758 0.574219 14.75 1.3125 14.75H10.9375C11.2109 14.75 11.457 14.668 11.6758 14.5312C11.6484 14.4219 11.6211 14.3125 11.6211 14.2031V13.957Z" fill="url(#paint0_linear)"/>
<defs>
<linearGradient id="paint0_linear" x1="0" y1="0" x2="0" y2="16" gradientUnits="userSpaceOnUse">
<stop stop-color="#4E96FF"/>
<stop offset="1" stop-color="#80C9FC"/>
</linearGradient>
</defs>
</svg>
