<svg width="14" height="15" viewBox="0 0 14 15" fill="none" xmlns="http://www.w3.org/2000/svg">
<path d="M10.1172 4.41406L8.96875 5.5625C8.55859 5.97266 8.85938 6.65625 9.43359 6.65625H13.125C13.4805 6.65625 13.7812 6.38281 13.7812 6V2.33594C13.7812 1.76172 13.0703 1.46094 12.6602 1.87109L11.6758 2.85547C10.4453 1.70703 8.80469 0.96875 7 0.96875C3.66406 0.96875 0.902344 3.34766 0.328125 6.49219C0.273438 6.71094 0.4375 6.875 0.65625 6.875H2.21484C2.35156 6.875 2.48828 6.79297 2.54297 6.62891C3.03516 4.63281 4.86719 3.18359 6.97266 3.15625C8.14844 3.15625 9.26953 3.62109 10.1172 4.41406ZM0.875 8.84375C0.492188 8.84375 0.21875 9.14453 0.21875 9.5V13.1914C0.21875 13.7656 0.902344 14.0664 1.3125 13.6562L2.29688 12.6719C3.52734 13.8203 5.16797 14.5312 7 14.5312C10.3086 14.5312 13.0703 12.1797 13.6445 9.03516C13.6992 8.81641 13.5352 8.65234 13.3164 8.65234H11.7578C11.6211 8.65234 11.4844 8.73438 11.4297 8.89844C10.9375 10.8945 9.10547 12.3438 7 12.3711C5.82422 12.3711 4.70312 11.9062 3.85547 11.1133L5.00391 9.96484C5.41406 9.55469 5.11328 8.84375 4.53906 8.84375H0.875Z" fill="url(#paint0_linear)"/>
<defs>
<linearGradient id="paint0_linear" x1="0" y1="0" x2="0" y2="16" gradientUnits="userSpaceOnUse">
<stop stop-color="#9E8FFF"/>
<stop offset="1" stop-color="#EBCBFF"/>
</linearGradient>
</defs>
</svg>
