<svg width="14" height="14" viewBox="0 0 14 14" fill="none" xmlns="http://www.w3.org/2000/svg">
<path fill-rule="evenodd" clip-rule="evenodd" d="M8.63594 1.74967V1.16634C8.63594 0.844175 8.92399 0.583008 9.27932 0.583008C9.63465 0.583008 9.92271 0.844175 9.92271 1.16634V1.74967H11.2095C12.2755 1.74967 13.1396 2.53318 13.1396 3.49967V5.83301V11.6663C13.1396 12.6328 12.2755 13.4163 11.2095 13.4163H2.20212C1.13613 13.4163 0.271973 12.6328 0.271973 11.6663V5.83301V3.49967C0.271973 2.53318 1.13613 1.74967 2.20212 1.74967H3.48888V1.16634C3.48888 0.844175 3.77693 0.583008 4.13227 0.583008C4.4876 0.583008 4.77565 0.844175 4.77565 1.16634V1.74967H8.63594ZM1.55873 6.41634V11.6663C1.55873 11.9885 1.84679 12.2497 2.20212 12.2497H11.2095C11.5648 12.2497 11.8529 11.9885 11.8529 11.6663V6.41634H1.55873ZM11.8529 5.24967H1.55873V3.49968C1.55873 3.17751 1.84679 2.91634 2.20212 2.91634H3.48888V3.49967C3.48888 3.82184 3.77693 4.08301 4.13227 4.08301C4.4876 4.08301 4.77565 3.82184 4.77565 3.49967V2.91634H8.63594V3.49967C8.63594 3.82184 8.92399 4.08301 9.27932 4.08301C9.63465 4.08301 9.92271 3.82184 9.92271 3.49967V2.91634H11.2095C11.5648 2.91634 11.8529 3.17751 11.8529 3.49968V5.24967Z" fill="#565656"/>
<mask id="mask0" mask-type="alpha" maskUnits="userSpaceOnUse" x="0" y="0" width="14" height="14">
<path fill-rule="evenodd" clip-rule="evenodd" d="M8.63594 1.74967V1.16634C8.63594 0.844175 8.92399 0.583008 9.27932 0.583008C9.63465 0.583008 9.92271 0.844175 9.92271 1.16634V1.74967H11.2095C12.2755 1.74967 13.1396 2.53318 13.1396 3.49967V5.83301V11.6663C13.1396 12.6328 12.2755 13.4163 11.2095 13.4163H2.20212C1.13613 13.4163 0.271973 12.6328 0.271973 11.6663V5.83301V3.49967C0.271973 2.53318 1.13613 1.74967 2.20212 1.74967H3.48888V1.16634C3.48888 0.844175 3.77693 0.583008 4.13227 0.583008C4.4876 0.583008 4.77565 0.844175 4.77565 1.16634V1.74967H8.63594ZM1.55873 6.41634V11.6663C1.55873 11.9885 1.84679 12.2497 2.20212 12.2497H11.2095C11.5648 12.2497 11.8529 11.9885 11.8529 11.6663V6.41634H1.55873ZM11.8529 5.24967H1.55873V3.49968C1.55873 3.17751 1.84679 2.91634 2.20212 2.91634H3.48888V3.49967C3.48888 3.82184 3.77693 4.08301 4.13227 4.08301C4.4876 4.08301 4.77565 3.82184 4.77565 3.49967V2.91634H8.63594V3.49967C8.63594 3.82184 8.92399 4.08301 9.27932 4.08301C9.63465 4.08301 9.92271 3.82184 9.92271 3.49967V2.91634H11.2095C11.5648 2.91634 11.8529 3.17751 11.8529 3.49968V5.24967Z" fill="white"/>
</mask>
<g mask="url(#mask0)">
</g>
</svg>
