<svg width="14" height="14" viewBox="0 0 14 14" fill="none" xmlns="http://www.w3.org/2000/svg">
<path fill-rule="evenodd" clip-rule="evenodd" d="M0.917804 9.52238C0.490615 8.63761 0.268543 7.657 0.270885 6.66293V6.32724C0.443116 3.04274 2.92173 0.449733 6.02589 0.270575L6.38302 0.269553C7.33186 0.266962 8.26951 0.499289 9.11794 0.947612C11.186 2.02886 12.4943 4.24206 12.4952 6.66352C12.4974 7.56078 12.3162 8.44827 11.9651 9.26593L13.1055 12.8452C13.2732 13.3714 12.7947 13.8719 12.2917 13.6966L8.87037 12.5035C8.08877 12.8709 7.2403 13.0604 6.38134 13.058C4.06814 13.0571 1.95258 11.6884 0.917804 9.52238ZM9.03133 11.1406L11.4779 11.9938L10.6624 9.43432C10.6081 9.26407 10.6211 9.0782 10.6984 8.91802C11.0356 8.21968 11.2103 7.4479 11.2084 6.66554C11.2077 4.75236 10.1748 3.0051 8.54024 2.15047C7.87027 1.79646 7.13254 1.61367 6.3847 1.61571L6.06133 1.61571C3.6475 1.75605 1.6918 3.80201 1.55667 6.36432L1.55765 6.66554C1.5557 7.4479 1.73043 8.21968 2.0676 8.91802C2.88575 10.6306 4.55593 11.7111 6.38327 11.7119C7.13254 11.7139 7.87027 11.5311 8.5378 11.1784C8.69092 11.0975 8.86859 11.0839 9.03133 11.1406Z" fill="#565656"/>
<mask id="mask0" mask-type="alpha" maskUnits="userSpaceOnUse" x="0" y="0" width="14" height="14">
<path fill-rule="evenodd" clip-rule="evenodd" d="M0.917804 9.52238C0.490615 8.63761 0.268543 7.657 0.270885 6.66293V6.32724C0.443116 3.04274 2.92173 0.449733 6.02589 0.270575L6.38302 0.269553C7.33186 0.266962 8.26951 0.499289 9.11794 0.947612C11.186 2.02886 12.4943 4.24206 12.4952 6.66352C12.4974 7.56078 12.3162 8.44827 11.9651 9.26593L13.1055 12.8452C13.2732 13.3714 12.7947 13.8719 12.2917 13.6966L8.87037 12.5035C8.08877 12.8709 7.2403 13.0604 6.38134 13.058C4.06814 13.0571 1.95258 11.6884 0.917804 9.52238ZM9.03133 11.1406L11.4779 11.9938L10.6624 9.43432C10.6081 9.26407 10.6211 9.0782 10.6984 8.91802C11.0356 8.21968 11.2103 7.4479 11.2084 6.66554C11.2077 4.75236 10.1748 3.0051 8.54024 2.15047C7.87027 1.79646 7.13254 1.61367 6.3847 1.61571L6.06133 1.61571C3.6475 1.75605 1.6918 3.80201 1.55667 6.36432L1.55765 6.66554C1.5557 7.4479 1.73043 8.21968 2.0676 8.91802C2.88575 10.6306 4.55593 11.7111 6.38327 11.7119C7.13254 11.7139 7.87027 11.5311 8.5378 11.1784C8.69092 11.0975 8.86859 11.0839 9.03133 11.1406Z" fill="white"/>
</mask>
<g mask="url(#mask0)">
</g>
</svg>
