<svg width="22" height="22" viewBox="0 0 22 22" fill="none" xmlns="http://www.w3.org/2000/svg">
<path d="M11 22C4.94317 22 0 17.0565 0 11C0 4.94317 4.94351 0 11 0C17.0568 0 22 4.94351 22 11C22 17.0568 17.0565 22 11 22ZM11 1.28906C5.64536 1.28906 1.28906 5.64536 1.28906 11C1.28906 16.3546 5.64536 20.7109 11 20.7109C16.3546 20.7109 20.7109 16.3546 20.7109 11C20.7109 5.64536 16.3546 1.28906 11 1.28906Z" fill="black"/>
<path d="M11 19.4219C6.37429 19.4219 2.57812 15.6249 2.57812 11C2.57812 6.37429 6.37519 2.57812 11 2.57812C15.6257 2.57812 19.4219 6.37514 19.4219 11C19.4219 15.6257 15.6248 19.4219 11 19.4219ZM11 3.86719C7.06694 3.86719 3.86719 7.06694 3.86719 11C3.86719 14.9331 7.06694 18.1328 11 18.1328C14.9331 18.1328 18.1328 14.9331 18.1328 11C18.1328 7.06694 14.9331 3.86719 11 3.86719Z" fill="black"/>
<g clip-path="url(#clip0)">
<path d="M11 16.9297C7.73499 16.9297 5.07031 14.2648 5.07031 11C5.07031 7.73499 7.73517 5.07031 11 5.07031C14.265 5.07031 16.9297 7.73517 16.9297 11C16.9297 14.265 14.2648 16.9297 11 16.9297ZM11 5.7652C8.11352 5.7652 5.7652 8.11352 5.7652 11C5.7652 13.8865 8.11352 16.2348 11 16.2348C13.8865 16.2348 16.2348 13.8865 16.2348 11C16.2348 8.11352 13.8865 5.7652 11 5.7652Z" fill="black"/>
<path d="M11.0001 15.5398C8.50651 15.5398 6.46014 13.493 6.46014 10.9999C6.46014 8.50633 8.507 6.45996 11.0001 6.45996C13.4936 6.45996 15.54 8.50679 15.54 10.9999C15.54 13.4934 13.4931 15.5398 11.0001 15.5398ZM11.0001 7.15485C8.8799 7.15485 7.15503 8.87971 7.15503 10.9999C7.15503 13.12 8.8799 14.8449 11.0001 14.8449C13.1202 14.8449 14.8451 13.12 14.8451 10.9999C14.8451 8.87971 13.1202 7.15485 11.0001 7.15485Z" fill="black"/>
</g>
<defs>
<clipPath id="clip0">
<rect width="11.8594" height="11.8594" fill="white" transform="translate(5.07031 5.07031)"/>
</clipPath>
</defs>
</svg>
