<svg width="14" height="14" viewBox="0 0 14 14" fill="none" xmlns="http://www.w3.org/2000/svg">
<g clip-path="url(#clip0)">
<path d="M13.0666 2.7998C12.5519 2.7998 12.1333 3.21841 12.1333 3.73313C12.1333 4.24785 12.5519 4.66645 13.0666 4.66645C13.5813 4.66645 13.9999 4.24788 13.9999 3.73313C13.9999 3.21841 13.5813 2.7998 13.0666 2.7998ZM13.0666 4.19981C12.8093 4.19981 12.5999 3.99052 12.5999 3.73313C12.5999 3.47577 12.8092 3.26645 13.0666 3.26645C13.324 3.26645 13.5333 3.47574 13.5333 3.73313C13.5333 3.99052 13.324 4.19981 13.0666 4.19981Z" fill="#565656"/>
<path d="M0.933324 10.5C0.418605 10.5 0 10.9186 0 11.4333C0 11.948 0.418605 12.3666 0.933324 12.3666C1.44807 12.3666 1.86665 11.948 1.86665 11.4333C1.86665 10.9186 1.44807 10.5 0.933324 10.5ZM0.933324 11.9C0.675965 11.9 0.466648 11.6907 0.466648 11.4333C0.466648 11.1759 0.675937 10.9666 0.933324 10.9666C1.19068 10.9666 1.4 11.1759 1.4 11.4333C1.4 11.6907 1.19071 11.9 0.933324 11.9Z" fill="#565656"/>
<path d="M12.6143 3.09477L10.6013 2.12294C10.4851 2.0667 10.3458 2.1157 10.2898 2.23169C10.2338 2.34765 10.2826 2.48719 10.3986 2.54319L12.4115 3.51501C12.4442 3.53087 12.4787 3.53834 12.5128 3.53834C12.5996 3.53834 12.6829 3.4898 12.723 3.40627C12.779 3.2903 12.7303 3.15077 12.6143 3.09477Z" fill="#565656"/>
<path d="M10.4997 12.1338C9.98498 12.1338 9.56641 12.5524 9.56641 13.0671C9.56641 13.5818 9.98498 14.0005 10.4997 14.0005C11.0145 14.0005 11.4331 13.5819 11.4331 13.0671C11.4331 12.5524 11.0145 12.1338 10.4997 12.1338ZM10.4997 13.5338C10.2424 13.5338 10.0331 13.3245 10.0331 13.0671C10.0331 12.8097 10.2424 12.6005 10.4997 12.6005C10.7571 12.6005 10.9664 12.8098 10.9664 13.0671C10.9664 13.3245 10.7571 13.5338 10.4997 13.5338Z" fill="#565656"/>
<path d="M10.0474 12.4278L8.03443 11.456C7.91822 11.3997 7.77893 11.4485 7.72293 11.5647C7.66693 11.6807 7.71569 11.8202 7.83168 11.8762L9.84465 12.8481C9.87732 12.8639 9.91186 12.8714 9.9459 12.8714C10.0327 12.8714 10.116 12.8228 10.1561 12.7393C10.2121 12.6233 10.1634 12.4838 10.0474 12.4278Z" fill="#565656"/>
<path d="M7.00022 6.2998C6.48547 6.2998 6.06689 6.71841 6.06689 7.23313C6.06689 7.74787 6.4855 8.16645 7.00022 8.16645C7.51497 8.16645 7.93355 7.74785 7.93355 7.23313C7.93355 6.71841 7.51497 6.2998 7.00022 6.2998ZM7.00022 7.69981C6.74286 7.69981 6.53354 7.49052 6.53354 7.23313C6.53354 6.97577 6.74283 6.76645 7.00022 6.76645C7.25758 6.76645 7.4669 6.97574 7.4669 7.23313C7.4669 7.49052 7.25758 7.69981 7.00022 7.69981Z" fill="#565656"/>
<path d="M6.58969 6.62145L5.0434 5.41628C4.94165 5.33764 4.79514 5.35514 4.71579 5.45688C4.63669 5.55863 4.65465 5.70514 4.7564 5.78449L6.30269 6.98966C6.3454 7.0228 6.39579 7.03891 6.44597 7.03891C6.51551 7.03891 6.58411 7.00812 6.6303 6.94909C6.7094 6.84731 6.69144 6.70078 6.58969 6.62145Z" fill="#565656"/>
<path d="M11.2 6.06641C9.7848 6.06641 8.6333 7.21791 8.6333 8.63308C8.6333 10.0483 9.7848 11.1998 11.2 11.1998C12.6151 11.1998 13.7666 10.0483 13.7666 8.63308C13.7666 7.21791 12.6151 6.06641 11.2 6.06641ZM11.2 10.7331C10.0419 10.7331 9.09998 9.79109 9.09998 8.63305C9.09998 7.47502 10.0419 6.53305 11.2 6.53305C12.358 6.53305 13.3 7.47502 13.3 8.63305C13.3 9.79109 12.358 10.7331 11.2 10.7331Z" fill="#565656"/>
<path d="M11.1999 7C10.6852 7 10.2666 7.41861 10.2666 7.93332C10.2666 8.44807 10.6852 8.86665 11.1999 8.86665C11.7147 8.86665 12.1332 8.44804 12.1332 7.93332C12.1332 7.41861 11.7147 7 11.1999 7ZM11.1999 8.4C10.9426 8.4 10.7332 8.19071 10.7332 7.93332C10.7332 7.67596 10.9425 7.46665 11.1999 7.46665C11.4573 7.46665 11.6666 7.67594 11.6666 7.93332C11.6666 8.19071 11.4573 8.4 11.1999 8.4Z" fill="#565656"/>
<path d="M11.8767 9.33301H10.5229C10.1242 9.33301 9.7998 9.64872 9.7998 10.0365V10.6516C9.7998 10.7349 9.84413 10.8119 9.91623 10.8536C10.3073 11.08 10.7511 11.1997 11.1998 11.1997C11.6485 11.1997 12.0923 11.08 12.4834 10.8536C12.5555 10.8121 12.5998 10.7349 12.5998 10.6518V10.0368C12.5998 9.64872 12.2755 9.33301 11.8767 9.33301ZM12.1331 10.5125C11.5524 10.8018 10.8472 10.8018 10.2665 10.5125V10.0368C10.2665 9.90608 10.3815 9.79968 10.5229 9.79968H11.8767C12.0181 9.79968 12.1331 9.90608 12.1331 10.0368V10.5125H12.1331Z" fill="#565656"/>
<path d="M5.59988 8.86621C4.1847 8.86621 3.0332 10.0177 3.0332 11.4329C3.0332 12.8481 4.1847 13.9995 5.59988 13.9995C7.01505 13.9995 8.16655 12.848 8.16655 11.4329C8.16655 10.0177 7.01505 8.86621 5.59988 8.86621ZM5.59988 13.5329C4.44184 13.5329 3.49988 12.5909 3.49988 11.4329C3.49988 10.2748 4.44184 9.33286 5.59988 9.33286C6.75791 9.33286 7.69988 10.2748 7.69988 11.4329C7.69988 12.5909 6.75791 13.5329 5.59988 13.5329Z" fill="#565656"/>
<path d="M5.59983 9.7998C5.08508 9.7998 4.6665 10.2184 4.6665 10.7331C4.6665 11.2479 5.08511 11.6665 5.59983 11.6665C6.11455 11.6665 6.53315 11.2479 6.53315 10.7331C6.53315 10.2184 6.11457 9.7998 5.59983 9.7998ZM5.59983 11.1998C5.34247 11.1998 5.13315 10.9905 5.13315 10.7331C5.13315 10.4758 5.34244 10.2665 5.59983 10.2665C5.85719 10.2665 6.0665 10.4757 6.0665 10.7331C6.0665 10.9905 5.85719 11.1998 5.59983 11.1998Z" fill="#565656"/>
<path d="M6.27709 12.1338H4.9233C4.52455 12.1338 4.2002 12.4495 4.2002 12.8373V13.4524C4.2002 13.5357 4.24452 13.6127 4.31662 13.6544C4.70769 13.8808 5.15148 14.0005 5.60019 14.0005C6.04891 14.0005 6.49269 13.8808 6.88376 13.6544C6.95587 13.6129 7.00019 13.5357 7.00019 13.4526V12.8375C7.00019 12.4495 6.67587 12.1338 6.27709 12.1338ZM6.53352 13.3133C5.95274 13.6026 5.24762 13.6026 4.66684 13.3133V12.8375C4.66684 12.7069 4.78188 12.6005 4.92327 12.6005H6.27706C6.41846 12.6005 6.53349 12.7069 6.53349 12.8375V13.3133H6.53352Z" fill="#565656"/>
<path d="M2.56668 3.0332C1.1515 3.0332 0 4.1847 0 5.59988C0 7.01505 1.1515 8.16655 2.56668 8.16655C3.98185 8.16655 5.13335 7.01505 5.13335 5.59988C5.13332 4.1847 3.98182 3.0332 2.56668 3.0332ZM2.56668 7.69988C1.40864 7.69988 0.466676 6.75791 0.466676 5.59988C0.466676 4.44184 1.40864 3.49988 2.56668 3.49988C3.72471 3.49988 4.66668 4.44184 4.66668 5.59988C4.66668 6.75791 3.72471 7.69988 2.56668 7.69988Z" fill="#565656"/>
<path d="M2.56663 3.9668C2.05188 3.9668 1.6333 4.3854 1.6333 4.90012C1.6333 5.41484 2.05191 5.83344 2.56663 5.83344C3.08137 5.83344 3.49995 5.41484 3.49995 4.90012C3.49995 4.3854 3.08134 3.9668 2.56663 3.9668ZM2.56663 5.3668C2.30927 5.3668 2.09995 5.15751 2.09995 4.90012C2.09995 4.64273 2.30924 4.43344 2.56663 4.43344C2.82398 4.43344 3.0333 4.64273 3.0333 4.90012C3.0333 5.15751 2.82398 5.3668 2.56663 5.3668Z" fill="#565656"/>
<path d="M3.2434 6.2998H1.88961C1.49086 6.2998 1.1665 6.61552 1.1665 7.0033V7.61838C1.1665 7.70166 1.21083 7.77866 1.28293 7.82045C1.674 8.04677 2.11779 8.16648 2.5665 8.16648C3.01522 8.16648 3.459 8.04677 3.85008 7.82045C3.92218 7.77891 3.9665 7.70166 3.9665 7.61862V7.00355C3.9665 6.61552 3.64215 6.2998 3.2434 6.2998ZM3.49983 7.47931C2.91907 7.76863 2.21393 7.76863 1.63315 7.47931V7.00355C1.63315 6.87288 1.74819 6.76648 1.88958 6.76648H3.24337C3.38477 6.76648 3.4998 6.87288 3.4998 7.00355V7.47931H3.49983Z" fill="#565656"/>
<path d="M8.16677 0C6.7516 0 5.6001 1.1515 5.6001 2.56668C5.6001 3.98185 6.7516 5.13335 8.16677 5.13335C9.58194 5.13335 10.7334 3.98185 10.7334 2.56668C10.7334 1.1515 9.58192 0 8.16677 0ZM8.16677 4.66668C7.00874 4.66668 6.06677 3.72471 6.06677 2.56668C6.06677 1.40864 7.00874 0.466676 8.16677 0.466676C9.3248 0.466676 10.2668 1.40864 10.2668 2.56668C10.2668 3.72471 9.3248 4.66668 8.16677 4.66668Z" fill="#565656"/>
<path d="M8.16672 0.933594C7.65198 0.933594 7.2334 1.3522 7.2334 1.86692C7.2334 2.38164 7.652 2.80024 8.16672 2.80024C8.68144 2.80024 9.10005 2.38166 9.10005 1.86695C9.10005 1.35223 8.68144 0.933594 8.16672 0.933594ZM8.16672 2.33359C7.90936 2.33359 7.70005 2.1243 7.70005 1.86692C7.70005 1.60956 7.90934 1.40024 8.16672 1.40024C8.42411 1.40024 8.6334 1.60953 8.6334 1.86692C8.63337 2.1243 8.42408 2.33359 8.16672 2.33359Z" fill="#565656"/>
<path d="M8.84349 3.2666H7.48971C7.09095 3.2666 6.7666 3.58231 6.7666 3.9701V4.58517C6.7666 4.66846 6.81093 4.74546 6.88303 4.78724C7.2741 5.01357 7.71789 5.13328 8.1666 5.13328C8.61531 5.13328 9.0591 5.01357 9.45017 4.78724C9.52228 4.74571 9.5666 4.66846 9.5666 4.58542V3.97035C9.5666 3.58228 9.24225 3.2666 8.84349 3.2666ZM9.09992 4.4461C8.51917 4.73542 7.81403 4.73542 7.23325 4.4461V3.97035C7.23325 3.83967 7.34829 3.73328 7.48968 3.73328H8.84347C8.98486 3.73328 9.0999 3.83967 9.0999 3.97035V4.4461H9.09992Z" fill="#565656"/>
<path d="M6.0111 2.41443C5.92735 2.31689 5.7801 2.30522 5.6821 2.389L4.0651 3.77268C3.9671 3.85643 3.95567 4.00368 4.03943 4.10168C4.08564 4.15557 4.15096 4.18335 4.21675 4.18335C4.27043 4.18335 4.32432 4.16492 4.36843 4.12711L5.98543 2.74343C6.08345 2.65967 6.09488 2.51243 6.0111 2.41443Z" fill="#565656"/>
<path d="M11.153 6.16016L9.75301 4.29349C9.67576 4.19013 9.52947 4.16981 9.42633 4.24681C9.32319 4.32406 9.30244 4.47035 9.37966 4.57324L10.7797 6.43992C10.8256 6.50106 10.8956 6.53324 10.9665 6.53324C11.0151 6.53324 11.0643 6.51807 11.1063 6.48657C11.2095 6.40935 11.2303 6.26306 11.153 6.16016Z" fill="#565656"/>
<path d="M9.23805 9.40485C9.1608 9.30171 9.01451 9.28095 8.91137 9.35817L7.60797 10.3356C7.50483 10.4128 7.48408 10.5591 7.5613 10.662C7.60726 10.7232 7.67726 10.7554 7.74819 10.7554C7.79694 10.7554 7.84595 10.74 7.88797 10.7087L9.19137 9.73125C9.29451 9.65406 9.31529 9.50774 9.23805 9.40485Z" fill="#565656"/>
<path d="M3.26658 11.2002H1.63323C1.50444 11.2002 1.3999 11.3045 1.3999 11.4335C1.3999 11.5626 1.50444 11.6668 1.63323 11.6668H3.26655C3.39534 11.6668 3.49987 11.5626 3.49987 11.4335C3.49987 11.3045 3.39537 11.2002 3.26658 11.2002Z" fill="#565656"/>
<path d="M2.56665 0C2.05191 0 1.6333 0.418605 1.6333 0.933324C1.6333 1.44807 2.05191 1.86665 2.56662 1.86665C3.08137 1.86665 3.49995 1.44804 3.49995 0.933324C3.49998 0.418605 3.08137 0 2.56665 0ZM2.56665 1.4C2.30929 1.4 2.09998 1.19071 2.09998 0.933324C2.09998 0.675965 2.30927 0.466648 2.56665 0.466648C2.82401 0.466648 3.03333 0.675937 3.03333 0.933324C3.0333 1.19071 2.82401 1.4 2.56665 1.4Z" fill="#565656"/>
<path d="M2.56682 1.40039C2.43803 1.40039 2.3335 1.50468 2.3335 1.63371V3.26704C2.3335 3.39607 2.43803 3.50036 2.56682 3.50036C2.69561 3.50036 2.80014 3.39607 2.80014 3.26704V1.63371C2.80014 1.50468 2.69561 1.40039 2.56682 1.40039Z" fill="#565656"/>
</g>
<defs>
<clipPath id="clip0">
<rect width="14" height="14" fill="white"/>
</clipPath>
</defs>
</svg>
