<svg width="157" height="25" viewBox="0 0 157 25" fill="none" xmlns="http://www.w3.org/2000/svg">
<path d="M19.32 17C19.24 17 19.172 16.976 19.116 16.928C19.068 16.872 19.044 16.804 19.044 16.724V8.888C19.044 8.8 19.068 8.732 19.116 8.684C19.172 8.628 19.24 8.6 19.32 8.6H19.92C20.048 8.6 20.152 8.664 20.232 8.792L22.764 13.64L25.32 8.792C25.336 8.744 25.368 8.7 25.416 8.66C25.472 8.62 25.54 8.6 25.62 8.6H26.208C26.296 8.6 26.364 8.628 26.412 8.684C26.468 8.732 26.496 8.8 26.496 8.888V16.724C26.496 16.804 26.468 16.872 26.412 16.928C26.356 16.976 26.288 17 26.208 17H25.62C25.54 17 25.472 16.976 25.416 16.928C25.368 16.872 25.344 16.804 25.344 16.724V10.82L23.34 14.732C23.26 14.9 23.132 14.984 22.956 14.984H22.584C22.408 14.984 22.28 14.9 22.2 14.732L20.184 10.82V16.724C20.184 16.804 20.156 16.872 20.1 16.928C20.052 16.976 19.988 17 19.908 17H19.32ZM30.1553 17.12C29.7633 17.12 29.3993 17.04 29.0633 16.88C28.7273 16.72 28.4593 16.504 28.2593 16.232C28.0673 15.952 27.9713 15.644 27.9713 15.308C27.9713 14.78 28.1873 14.348 28.6193 14.012C29.0593 13.668 29.6513 13.444 30.3953 13.34L32.1833 13.088V12.74C32.1833 11.924 31.7153 11.516 30.7793 11.516C30.4273 11.516 30.1393 11.592 29.9153 11.744C29.6913 11.888 29.5233 12.06 29.4113 12.26C29.3873 12.332 29.3553 12.384 29.3153 12.416C29.2833 12.448 29.2353 12.464 29.1713 12.464H28.6553C28.5833 12.464 28.5193 12.44 28.4633 12.392C28.4153 12.336 28.3913 12.272 28.3913 12.2C28.3993 12.008 28.4873 11.792 28.6553 11.552C28.8313 11.304 29.0993 11.092 29.4593 10.916C29.8193 10.732 30.2633 10.64 30.7913 10.64C31.6873 10.64 32.3313 10.852 32.7233 11.276C33.1153 11.692 33.3113 12.212 33.3113 12.836V16.724C33.3113 16.804 33.2833 16.872 33.2273 16.928C33.1793 16.976 33.1153 17 33.0353 17H32.4833C32.4033 17 32.3353 16.976 32.2793 16.928C32.2313 16.872 32.2073 16.804 32.2073 16.724V16.208C32.0313 16.464 31.7753 16.68 31.4393 16.856C31.1033 17.032 30.6753 17.12 30.1553 17.12ZM30.4073 16.22C30.9273 16.22 31.3513 16.052 31.6793 15.716C32.0153 15.372 32.1833 14.88 32.1833 14.24V13.904L30.7913 14.108C30.2233 14.188 29.7953 14.324 29.5073 14.516C29.2193 14.7 29.0753 14.936 29.0753 15.224C29.0753 15.544 29.2073 15.792 29.4713 15.968C29.7353 16.136 30.0473 16.22 30.4073 16.22ZM35.3124 17C35.2324 17 35.1644 16.976 35.1084 16.928C35.0604 16.872 35.0364 16.804 35.0364 16.724V11.036C35.0364 10.956 35.0604 10.892 35.1084 10.844C35.1644 10.788 35.2324 10.76 35.3124 10.76H35.8764C35.9564 10.76 36.0204 10.788 36.0684 10.844C36.1244 10.892 36.1524 10.956 36.1524 11.036V11.564C36.3844 11.268 36.6564 11.04 36.9684 10.88C37.2884 10.72 37.6844 10.64 38.1564 10.64C38.9244 10.64 39.5204 10.888 39.9444 11.384C40.3764 11.872 40.5924 12.524 40.5924 13.34V16.724C40.5924 16.804 40.5644 16.872 40.5084 16.928C40.4604 16.976 40.3964 17 40.3164 17H39.7164C39.6364 17 39.5684 16.976 39.5124 16.928C39.4644 16.872 39.4404 16.804 39.4404 16.724V13.4C39.4404 12.832 39.3004 12.392 39.0204 12.08C38.7484 11.768 38.3524 11.612 37.8324 11.612C37.3284 11.612 36.9284 11.772 36.6324 12.092C36.3364 12.404 36.1884 12.84 36.1884 13.4V16.724C36.1884 16.804 36.1604 16.872 36.1044 16.928C36.0564 16.976 35.9924 17 35.9124 17H35.3124ZM44.0538 17.12C43.6618 17.12 43.2978 17.04 42.9618 16.88C42.6258 16.72 42.3578 16.504 42.1578 16.232C41.9658 15.952 41.8698 15.644 41.8698 15.308C41.8698 14.78 42.0858 14.348 42.5178 14.012C42.9578 13.668 43.5498 13.444 44.2938 13.34L46.0818 13.088V12.74C46.0818 11.924 45.6138 11.516 44.6778 11.516C44.3258 11.516 44.0378 11.592 43.8138 11.744C43.5898 11.888 43.4218 12.06 43.3098 12.26C43.2858 12.332 43.2538 12.384 43.2138 12.416C43.1818 12.448 43.1338 12.464 43.0698 12.464H42.5538C42.4818 12.464 42.4178 12.44 42.3618 12.392C42.3138 12.336 42.2898 12.272 42.2898 12.2C42.2978 12.008 42.3858 11.792 42.5538 11.552C42.7298 11.304 42.9978 11.092 43.3578 10.916C43.7178 10.732 44.1618 10.64 44.6898 10.64C45.5858 10.64 46.2298 10.852 46.6218 11.276C47.0138 11.692 47.2098 12.212 47.2098 12.836V16.724C47.2098 16.804 47.1818 16.872 47.1258 16.928C47.0778 16.976 47.0138 17 46.9338 17H46.3818C46.3018 17 46.2338 16.976 46.1778 16.928C46.1298 16.872 46.1058 16.804 46.1058 16.724V16.208C45.9298 16.464 45.6738 16.68 45.3378 16.856C45.0018 17.032 44.5738 17.12 44.0538 17.12ZM44.3058 16.22C44.8258 16.22 45.2498 16.052 45.5778 15.716C45.9138 15.372 46.0818 14.88 46.0818 14.24V13.904L44.6898 14.108C44.1218 14.188 43.6938 14.324 43.4058 14.516C43.1178 14.7 42.9738 14.936 42.9738 15.224C42.9738 15.544 43.1058 15.792 43.3698 15.968C43.6338 16.136 43.9458 16.22 44.3058 16.22ZM51.4909 19.64C50.8349 19.64 50.3069 19.528 49.9069 19.304C49.5069 19.088 49.2229 18.84 49.0549 18.56C48.8869 18.28 48.7949 18.028 48.7789 17.804C48.7709 17.724 48.7949 17.656 48.8509 17.6C48.9149 17.544 48.9829 17.516 49.0549 17.516H49.6309C49.7029 17.516 49.7629 17.532 49.8109 17.564C49.8589 17.604 49.8989 17.672 49.9309 17.768C50.0269 18.024 50.1829 18.244 50.3989 18.428C50.6229 18.62 50.9669 18.716 51.4309 18.716C52.0229 18.716 52.4589 18.588 52.7389 18.332C53.0189 18.084 53.1589 17.64 53.1589 17V16.184C52.9509 16.448 52.6869 16.66 52.3669 16.82C52.0469 16.972 51.6669 17.048 51.2269 17.048C50.3789 17.048 49.7429 16.78 49.3189 16.244C48.9029 15.7 48.6829 15.012 48.6589 14.18L48.6469 13.844L48.6589 13.52C48.6829 12.696 48.9069 12.012 49.3309 11.468C49.7549 10.916 50.3869 10.64 51.2269 10.64C52.0669 10.64 52.7229 10.948 53.1949 11.564V11.048C53.1949 10.968 53.2189 10.9 53.2669 10.844C53.3229 10.788 53.3909 10.76 53.4709 10.76H54.0229C54.1029 10.76 54.1709 10.788 54.2269 10.844C54.2829 10.9 54.3109 10.968 54.3109 11.048V16.868C54.3109 18.716 53.3709 19.64 51.4909 19.64ZM51.4669 16.088C52.0109 16.088 52.4229 15.908 52.7029 15.548C52.9829 15.188 53.1349 14.76 53.1589 14.264C53.1669 14.192 53.1709 14.052 53.1709 13.844C53.1709 13.644 53.1669 13.508 53.1589 13.436C53.1349 12.94 52.9829 12.512 52.7029 12.152C52.4309 11.792 52.0189 11.612 51.4669 11.612C50.8989 11.612 50.4869 11.788 50.2309 12.14C49.9749 12.492 49.8349 12.956 49.8109 13.532L49.7989 13.844L49.8109 14.168C49.8349 14.736 49.9749 15.2 50.2309 15.56C50.4869 15.912 50.8989 16.088 51.4669 16.088ZM58.591 17.12C57.767 17.12 57.107 16.868 56.611 16.364C56.123 15.852 55.855 15.156 55.807 14.276L55.795 13.868L55.807 13.472C55.863 12.608 56.135 11.92 56.623 11.408C57.119 10.896 57.771 10.64 58.579 10.64C59.467 10.64 60.155 10.924 60.643 11.492C61.131 12.052 61.375 12.812 61.375 13.772V13.976C61.375 14.056 61.347 14.124 61.291 14.18C61.243 14.228 61.179 14.252 61.099 14.252H56.947V14.36C56.971 14.88 57.127 15.324 57.415 15.692C57.711 16.052 58.099 16.232 58.579 16.232C58.947 16.232 59.247 16.16 59.479 16.016C59.719 15.864 59.895 15.708 60.007 15.548C60.079 15.452 60.131 15.396 60.163 15.38C60.203 15.356 60.271 15.344 60.367 15.344H60.955C61.027 15.344 61.087 15.364 61.135 15.404C61.183 15.444 61.207 15.5 61.207 15.572C61.207 15.748 61.095 15.96 60.871 16.208C60.655 16.456 60.347 16.672 59.947 16.856C59.555 17.032 59.103 17.12 58.591 17.12ZM60.235 13.424V13.388C60.235 12.836 60.083 12.388 59.779 12.044C59.483 11.692 59.083 11.516 58.579 11.516C58.075 11.516 57.675 11.692 57.379 12.044C57.091 12.388 56.947 12.836 56.947 13.388V13.424H60.235ZM65.0899 17.12C64.2579 17.12 63.6299 16.848 63.2059 16.304C62.7819 15.76 62.5579 15.072 62.5339 14.24L62.5219 13.88L62.5339 13.52C62.5579 12.696 62.7819 12.012 63.2059 11.468C63.6299 10.916 64.2579 10.64 65.0899 10.64C65.9139 10.64 66.5619 10.932 67.0339 11.516V8.756C67.0339 8.676 67.0579 8.612 67.1059 8.564C67.1619 8.508 67.2299 8.48 67.3099 8.48H67.8859C67.9659 8.48 68.0299 8.508 68.0779 8.564C68.1339 8.612 68.1619 8.676 68.1619 8.756V16.724C68.1619 16.804 68.1339 16.872 68.0779 16.928C68.0299 16.976 67.9659 17 67.8859 17H67.3459C67.2659 17 67.1979 16.976 67.1419 16.928C67.0939 16.872 67.0699 16.804 67.0699 16.724V16.22C66.6059 16.82 65.9459 17.12 65.0899 17.12ZM65.3419 16.148C65.8939 16.148 66.3059 15.968 66.5779 15.608C66.8579 15.24 67.0099 14.804 67.0339 14.3C67.0419 14.212 67.0459 14.06 67.0459 13.844C67.0459 13.62 67.0419 13.464 67.0339 13.376C67.0179 12.904 66.8659 12.492 66.5779 12.14C66.2899 11.788 65.8779 11.612 65.3419 11.612C64.7739 11.612 64.3579 11.788 64.0939 12.14C63.8379 12.492 63.6979 12.956 63.6739 13.532L63.6619 13.88C63.6619 15.392 64.2219 16.148 65.3419 16.148ZM75.972 17.12C75.108 17.12 74.452 16.82 74.004 16.22V16.724C74.004 16.804 73.976 16.872 73.92 16.928C73.872 16.976 73.808 17 73.728 17H73.176C73.096 17 73.028 16.976 72.972 16.928C72.924 16.872 72.9 16.804 72.9 16.724V8.756C72.9 8.676 72.924 8.612 72.972 8.564C73.028 8.508 73.096 8.48 73.176 8.48H73.764C73.844 8.48 73.908 8.508 73.956 8.564C74.004 8.612 74.028 8.676 74.028 8.756V11.516C74.5 10.932 75.148 10.64 75.972 10.64C76.804 10.64 77.432 10.916 77.856 11.468C78.28 12.012 78.508 12.696 78.54 13.52C78.548 13.608 78.552 13.728 78.552 13.88C78.552 14.032 78.548 14.152 78.54 14.24C78.508 15.072 78.28 15.76 77.856 16.304C77.432 16.848 76.804 17.12 75.972 17.12ZM75.72 16.148C76.288 16.148 76.7 15.972 76.956 15.62C77.22 15.268 77.364 14.804 77.388 14.228C77.396 14.148 77.4 14.032 77.4 13.88C77.4 12.368 76.84 11.612 75.72 11.612C75.184 11.612 74.772 11.788 74.484 12.14C74.196 12.492 74.044 12.904 74.028 13.376L74.016 13.844L74.028 14.3C74.052 14.804 74.2 15.24 74.472 15.608C74.752 15.968 75.168 16.148 75.72 16.148ZM80.8823 19.28C80.8183 19.28 80.7623 19.256 80.7143 19.208C80.6663 19.16 80.6423 19.104 80.6423 19.04C80.6423 18.984 80.6623 18.912 80.7023 18.824L81.6263 16.628L79.3343 11.216C79.2943 11.112 79.2743 11.044 79.2743 11.012C79.2743 10.94 79.2983 10.88 79.3463 10.832C79.3943 10.784 79.4543 10.76 79.5263 10.76H80.1143C80.2423 10.76 80.3383 10.828 80.4023 10.964L82.2263 15.332L84.0983 10.964C84.1623 10.828 84.2623 10.76 84.3983 10.76H84.9623C85.0343 10.76 85.0943 10.784 85.1423 10.832C85.1903 10.88 85.2143 10.936 85.2143 11C85.2143 11.024 85.1943 11.096 85.1543 11.216L81.7463 19.076C81.6823 19.212 81.5823 19.28 81.4463 19.28H80.8823ZM90.9998 17C90.9198 17 90.8518 16.976 90.7958 16.928C90.7478 16.872 90.7238 16.804 90.7238 16.724V9.668H88.4198C88.3398 9.668 88.2718 9.644 88.2158 9.596C88.1678 9.54 88.1438 9.472 88.1438 9.392V8.888C88.1438 8.808 88.1678 8.74 88.2158 8.684C88.2718 8.628 88.3398 8.6 88.4198 8.6H94.2038C94.2918 8.6 94.3598 8.628 94.4078 8.684C94.4638 8.732 94.4918 8.8 94.4918 8.888V9.392C94.4918 9.472 94.4638 9.54 94.4078 9.596C94.3518 9.644 94.2838 9.668 94.2038 9.668H91.9118V16.724C91.9118 16.804 91.8838 16.872 91.8278 16.928C91.7718 16.976 91.7038 17 91.6238 17H90.9998ZM97.0285 17.12C96.2045 17.12 95.5445 16.868 95.0485 16.364C94.5605 15.852 94.2925 15.156 94.2445 14.276L94.2325 13.868L94.2445 13.472C94.3005 12.608 94.5725 11.92 95.0605 11.408C95.5565 10.896 96.2085 10.64 97.0165 10.64C97.9045 10.64 98.5925 10.924 99.0805 11.492C99.5685 12.052 99.8125 12.812 99.8125 13.772V13.976C99.8125 14.056 99.7845 14.124 99.7285 14.18C99.6805 14.228 99.6165 14.252 99.5365 14.252H95.3845V14.36C95.4085 14.88 95.5645 15.324 95.8525 15.692C96.1485 16.052 96.5365 16.232 97.0165 16.232C97.3845 16.232 97.6845 16.16 97.9165 16.016C98.1565 15.864 98.3325 15.708 98.4445 15.548C98.5165 15.452 98.5685 15.396 98.6005 15.38C98.6405 15.356 98.7085 15.344 98.8045 15.344H99.3925C99.4645 15.344 99.5245 15.364 99.5725 15.404C99.6205 15.444 99.6445 15.5 99.6445 15.572C99.6445 15.748 99.5325 15.96 99.3085 16.208C99.0925 16.456 98.7845 16.672 98.3845 16.856C97.9925 17.032 97.5405 17.12 97.0285 17.12ZM98.6725 13.424V13.388C98.6725 12.836 98.5205 12.388 98.2165 12.044C97.9205 11.692 97.5205 11.516 97.0165 11.516C96.5125 11.516 96.1125 11.692 95.8165 12.044C95.5285 12.388 95.3845 12.836 95.3845 13.388V13.424H98.6725ZM101.535 17C101.455 17 101.387 16.976 101.331 16.928C101.283 16.872 101.259 16.804 101.259 16.724V8.756C101.259 8.676 101.283 8.612 101.331 8.564C101.387 8.508 101.455 8.48 101.535 8.48H102.099C102.179 8.48 102.243 8.508 102.291 8.564C102.347 8.612 102.375 8.676 102.375 8.756V12.932L104.739 10.964C104.763 10.948 104.803 10.916 104.859 10.868C104.915 10.828 104.967 10.8 105.015 10.784C105.071 10.768 105.139 10.76 105.219 10.76H105.855C105.927 10.76 105.987 10.784 106.035 10.832C106.083 10.88 106.107 10.94 106.107 11.012C106.107 11.1 106.059 11.176 105.963 11.24L103.191 13.544L106.263 16.532C106.359 16.612 106.407 16.684 106.407 16.748C106.407 16.82 106.383 16.88 106.335 16.928C106.287 16.976 106.227 17 106.155 17H105.531C105.411 17 105.323 16.988 105.267 16.964C105.219 16.94 105.147 16.884 105.051 16.796L102.375 14.24V16.724C102.375 16.804 102.347 16.872 102.291 16.928C102.243 16.976 102.179 17 102.099 17H101.535ZM107.723 17C107.643 17 107.575 16.976 107.519 16.928C107.471 16.872 107.447 16.804 107.447 16.724V8.756C107.447 8.676 107.471 8.612 107.519 8.564C107.575 8.508 107.643 8.48 107.723 8.48H108.287C108.367 8.48 108.431 8.508 108.479 8.564C108.535 8.612 108.563 8.676 108.563 8.756V16.724C108.563 16.804 108.535 16.872 108.479 16.928C108.431 16.976 108.367 17 108.287 17H107.723ZM112.093 17.12C111.701 17.12 111.337 17.04 111.001 16.88C110.665 16.72 110.397 16.504 110.197 16.232C110.005 15.952 109.909 15.644 109.909 15.308C109.909 14.78 110.125 14.348 110.557 14.012C110.997 13.668 111.589 13.444 112.333 13.34L114.121 13.088V12.74C114.121 11.924 113.653 11.516 112.717 11.516C112.365 11.516 112.077 11.592 111.853 11.744C111.629 11.888 111.461 12.06 111.349 12.26C111.325 12.332 111.293 12.384 111.253 12.416C111.221 12.448 111.173 12.464 111.109 12.464H110.593C110.521 12.464 110.457 12.44 110.401 12.392C110.353 12.336 110.329 12.272 110.329 12.2C110.337 12.008 110.425 11.792 110.593 11.552C110.769 11.304 111.037 11.092 111.397 10.916C111.757 10.732 112.201 10.64 112.729 10.64C113.625 10.64 114.269 10.852 114.661 11.276C115.053 11.692 115.249 12.212 115.249 12.836V16.724C115.249 16.804 115.221 16.872 115.165 16.928C115.117 16.976 115.053 17 114.973 17H114.421C114.341 17 114.273 16.976 114.217 16.928C114.169 16.872 114.145 16.804 114.145 16.724V16.208C113.969 16.464 113.713 16.68 113.377 16.856C113.041 17.032 112.613 17.12 112.093 17.12ZM112.345 16.22C112.865 16.22 113.289 16.052 113.617 15.716C113.953 15.372 114.121 14.88 114.121 14.24V13.904L112.729 14.108C112.161 14.188 111.733 14.324 111.445 14.516C111.157 14.7 111.013 14.936 111.013 15.224C111.013 15.544 111.145 15.792 111.409 15.968C111.673 16.136 111.985 16.22 112.345 16.22ZM120.058 17.12C119.194 17.12 118.538 16.82 118.09 16.22V16.724C118.09 16.804 118.062 16.872 118.006 16.928C117.958 16.976 117.894 17 117.814 17H117.262C117.182 17 117.114 16.976 117.058 16.928C117.01 16.872 116.986 16.804 116.986 16.724V8.756C116.986 8.676 117.01 8.612 117.058 8.564C117.114 8.508 117.182 8.48 117.262 8.48H117.85C117.93 8.48 117.994 8.508 118.042 8.564C118.09 8.612 118.114 8.676 118.114 8.756V11.516C118.586 10.932 119.234 10.64 120.058 10.64C120.89 10.64 121.518 10.916 121.942 11.468C122.366 12.012 122.594 12.696 122.626 13.52C122.634 13.608 122.638 13.728 122.638 13.88C122.638 14.032 122.634 14.152 122.626 14.24C122.594 15.072 122.366 15.76 121.942 16.304C121.518 16.848 120.89 17.12 120.058 17.12ZM119.806 16.148C120.374 16.148 120.786 15.972 121.042 15.62C121.306 15.268 121.45 14.804 121.474 14.228C121.482 14.148 121.486 14.032 121.486 13.88C121.486 12.368 120.926 11.612 119.806 11.612C119.27 11.612 118.858 11.788 118.57 12.14C118.282 12.492 118.13 12.904 118.114 13.376L118.102 13.844L118.114 14.3C118.138 14.804 118.286 15.24 118.558 15.608C118.838 15.968 119.254 16.148 119.806 16.148ZM126.271 17.12C125.711 17.12 125.239 17.032 124.855 16.856C124.479 16.672 124.195 16.464 124.003 16.232C123.819 16 123.727 15.808 123.727 15.656C123.727 15.576 123.755 15.516 123.811 15.476C123.875 15.428 123.939 15.404 124.003 15.404H124.543C124.623 15.404 124.695 15.444 124.759 15.524C124.951 15.748 125.159 15.924 125.383 16.052C125.607 16.18 125.907 16.244 126.283 16.244C126.699 16.244 127.035 16.164 127.291 16.004C127.555 15.836 127.687 15.608 127.687 15.32C127.687 15.128 127.631 14.972 127.519 14.852C127.415 14.724 127.231 14.616 126.967 14.528C126.711 14.432 126.327 14.328 125.815 14.216C125.119 14.064 124.623 13.844 124.327 13.556C124.039 13.268 123.895 12.896 123.895 12.44C123.895 12.136 123.983 11.848 124.159 11.576C124.343 11.296 124.607 11.072 124.951 10.904C125.303 10.728 125.723 10.64 126.211 10.64C126.723 10.64 127.159 10.724 127.519 10.892C127.879 11.06 128.147 11.26 128.323 11.492C128.507 11.716 128.599 11.904 128.599 12.056C128.599 12.128 128.571 12.188 128.515 12.236C128.467 12.284 128.407 12.308 128.335 12.308H127.831C127.735 12.308 127.655 12.268 127.591 12.188C127.463 12.036 127.351 11.92 127.255 11.84C127.167 11.752 127.035 11.676 126.859 11.612C126.691 11.548 126.475 11.516 126.211 11.516C125.827 11.516 125.531 11.6 125.323 11.768C125.115 11.928 125.011 12.14 125.011 12.404C125.011 12.572 125.055 12.716 125.143 12.836C125.231 12.948 125.399 13.052 125.647 13.148C125.903 13.244 126.271 13.344 126.751 13.448C127.511 13.608 128.047 13.84 128.359 14.144C128.679 14.44 128.839 14.82 128.839 15.284C128.839 15.628 128.739 15.94 128.539 16.22C128.339 16.5 128.043 16.72 127.651 16.88C127.267 17.04 126.807 17.12 126.271 17.12ZM130.516 19.28C130.436 19.28 130.368 19.252 130.312 19.196C130.264 19.148 130.24 19.084 130.24 19.004V11.036C130.24 10.956 130.264 10.892 130.312 10.844C130.368 10.788 130.436 10.76 130.516 10.76H131.068C131.148 10.76 131.212 10.788 131.26 10.844C131.316 10.892 131.344 10.956 131.344 11.036V11.564C131.792 10.948 132.448 10.64 133.312 10.64C134.152 10.64 134.78 10.904 135.196 11.432C135.62 11.96 135.848 12.64 135.88 13.472C135.888 13.56 135.892 13.696 135.892 13.88C135.892 14.064 135.888 14.2 135.88 14.288C135.848 15.112 135.62 15.792 135.196 16.328C134.772 16.856 134.144 17.12 133.312 17.12C132.48 17.12 131.832 16.82 131.368 16.22V19.004C131.368 19.084 131.344 19.148 131.296 19.196C131.248 19.252 131.184 19.28 131.104 19.28H130.516ZM133.06 16.148C133.628 16.148 134.04 15.972 134.296 15.62C134.56 15.268 134.704 14.804 134.728 14.228C134.736 14.148 134.74 14.032 134.74 13.88C134.74 12.368 134.18 11.612 133.06 11.612C132.508 11.612 132.092 11.796 131.812 12.164C131.54 12.524 131.392 12.956 131.368 13.46L131.356 13.916L131.368 14.384C131.384 14.856 131.536 15.268 131.824 15.62C132.112 15.972 132.524 16.148 133.06 16.148ZM139.116 17.12C138.724 17.12 138.36 17.04 138.024 16.88C137.688 16.72 137.42 16.504 137.22 16.232C137.028 15.952 136.932 15.644 136.932 15.308C136.932 14.78 137.148 14.348 137.58 14.012C138.02 13.668 138.612 13.444 139.356 13.34L141.144 13.088V12.74C141.144 11.924 140.676 11.516 139.74 11.516C139.388 11.516 139.1 11.592 138.876 11.744C138.652 11.888 138.484 12.06 138.372 12.26C138.348 12.332 138.316 12.384 138.276 12.416C138.244 12.448 138.196 12.464 138.132 12.464H137.616C137.544 12.464 137.48 12.44 137.424 12.392C137.376 12.336 137.352 12.272 137.352 12.2C137.36 12.008 137.448 11.792 137.616 11.552C137.792 11.304 138.06 11.092 138.42 10.916C138.78 10.732 139.224 10.64 139.752 10.64C140.648 10.64 141.292 10.852 141.684 11.276C142.076 11.692 142.272 12.212 142.272 12.836V16.724C142.272 16.804 142.244 16.872 142.188 16.928C142.14 16.976 142.076 17 141.996 17H141.444C141.364 17 141.296 16.976 141.24 16.928C141.192 16.872 141.168 16.804 141.168 16.724V16.208C140.992 16.464 140.736 16.68 140.4 16.856C140.064 17.032 139.636 17.12 139.116 17.12ZM139.368 16.22C139.888 16.22 140.312 16.052 140.64 15.716C140.976 15.372 141.144 14.88 141.144 14.24V13.904L139.752 14.108C139.184 14.188 138.756 14.324 138.468 14.516C138.18 14.7 138.036 14.936 138.036 15.224C138.036 15.544 138.168 15.792 138.432 15.968C138.696 16.136 139.008 16.22 139.368 16.22ZM146.517 17.12C145.661 17.12 144.989 16.88 144.501 16.4C144.021 15.912 143.765 15.232 143.733 14.36L143.721 13.88L143.733 13.4C143.765 12.528 144.021 11.852 144.501 11.372C144.989 10.884 145.661 10.64 146.517 10.64C147.093 10.64 147.581 10.744 147.981 10.952C148.381 11.16 148.677 11.416 148.869 11.72C149.069 12.024 149.177 12.328 149.193 12.632C149.201 12.712 149.177 12.776 149.121 12.824C149.065 12.872 148.997 12.896 148.917 12.896H148.341C148.261 12.896 148.201 12.88 148.161 12.848C148.121 12.816 148.081 12.752 148.041 12.656C147.905 12.272 147.713 12 147.465 11.84C147.217 11.672 146.905 11.588 146.529 11.588C146.033 11.588 145.637 11.744 145.341 12.056C145.053 12.36 144.897 12.828 144.873 13.46L144.861 13.892L144.873 14.3C144.897 14.94 145.053 15.412 145.341 15.716C145.629 16.02 146.025 16.172 146.529 16.172C146.905 16.172 147.217 16.092 147.465 15.932C147.713 15.764 147.905 15.488 148.041 15.104C148.081 15.008 148.121 14.944 148.161 14.912C148.201 14.872 148.261 14.852 148.341 14.852H148.917C148.997 14.852 149.065 14.88 149.121 14.936C149.177 14.984 149.201 15.048 149.193 15.128C149.177 15.424 149.069 15.728 148.869 16.04C148.677 16.344 148.381 16.6 147.981 16.808C147.589 17.016 147.101 17.12 146.517 17.12ZM153.114 17.12C152.29 17.12 151.63 16.868 151.134 16.364C150.646 15.852 150.378 15.156 150.33 14.276L150.318 13.868L150.33 13.472C150.386 12.608 150.658 11.92 151.146 11.408C151.642 10.896 152.294 10.64 153.102 10.64C153.99 10.64 154.678 10.924 155.166 11.492C155.654 12.052 155.898 12.812 155.898 13.772V13.976C155.898 14.056 155.87 14.124 155.814 14.18C155.766 14.228 155.702 14.252 155.622 14.252H151.47V14.36C151.494 14.88 151.65 15.324 151.938 15.692C152.234 16.052 152.622 16.232 153.102 16.232C153.47 16.232 153.77 16.16 154.002 16.016C154.242 15.864 154.418 15.708 154.53 15.548C154.602 15.452 154.654 15.396 154.686 15.38C154.726 15.356 154.794 15.344 154.89 15.344H155.478C155.55 15.344 155.61 15.364 155.658 15.404C155.706 15.444 155.73 15.5 155.73 15.572C155.73 15.748 155.618 15.96 155.394 16.208C155.178 16.456 154.87 16.672 154.47 16.856C154.078 17.032 153.626 17.12 153.114 17.12ZM154.758 13.424V13.388C154.758 12.836 154.606 12.388 154.302 12.044C154.006 11.692 153.606 11.516 153.102 11.516C152.598 11.516 152.198 11.692 151.902 12.044C151.614 12.388 151.47 12.836 151.47 13.388V13.424H154.758Z" fill="#757575"/>
<path fill-rule="evenodd" clip-rule="evenodd" d="M6.56533 20.3503C8.42392 18.65 8.66806 16.3992 6.6869 15.4031C4.84716 14.4785 2.10476 13.7315 1.85003 10.9265C3.09633 13.0679 5.41122 13.3759 7.08113 14.2207C8.11831 14.7461 8.97304 15.657 9.01039 17.319C10.1999 15.1931 9.09596 13.771 8.03405 13.0051C6.0402 11.5659 2.15671 11.1664 1.26678 5C-0.343644 8.12107 -0.72497 12.3903 1.95569 14.5681C3.96889 16.1871 7.1101 16.2862 6.83353 17.8031C5.86924 16.8218 4.13272 18.3113 2.53023 16.3255C2.90623 20.9107 7.1041 16.9424 6.56533 20.3503Z" fill="#043927"/>
<path fill-rule="evenodd" clip-rule="evenodd" d="M11.232 12.0249C11.0339 12.6603 11.0407 12.504 10.2708 12.3984L11.232 12.0249ZM8.44897 12.5354C10.1503 13.4255 10.1977 15.1255 10.1149 15.6654C10.3733 15.251 12.2593 11.7506 13 12.1524C12.8076 11.3149 12.1162 11.5283 11.8125 11.6771C11.0943 11.0551 10.2157 11.782 8.44897 12.5354Z" fill="#DA04F2"/>
</svg>
