<svg width="13" height="16" viewBox="0 0 13 16" fill="none" xmlns="http://www.w3.org/2000/svg">
<path fill-rule="evenodd" clip-rule="evenodd" d="M6.56533 15.3503C8.42392 13.65 8.66806 11.3992 6.6869 10.4031C4.84716 9.47855 2.10476 8.73151 1.85003 5.92652C3.09633 8.0679 5.41122 8.37588 7.08113 9.22071C8.11831 9.74606 8.97304 10.657 9.01039 12.319C10.1999 10.1931 9.09596 8.77101 8.03405 8.00514C6.0402 6.56591 2.15671 6.16642 1.26678 0C-0.343644 3.12107 -0.72497 7.39031 1.95569 9.56808C3.96889 11.1871 7.1101 11.2862 6.83353 12.8031C5.86924 11.8218 4.13272 13.3113 2.53023 11.3255C2.90623 15.9107 7.1041 11.9424 6.56533 15.3503Z" fill="#043927"/>
<path fill-rule="evenodd" clip-rule="evenodd" d="M11.232 7.0251C11.0339 7.66047 11.0407 7.50422 10.2708 7.39861L11.232 7.0251ZM8.44897 7.53557C10.1503 8.42573 10.1977 10.1257 10.1149 10.6656C10.3733 10.2513 12.2593 6.75084 13 7.15266C12.8076 6.31508 12.1162 6.52849 11.8125 6.67727C11.0943 6.05531 10.2157 6.78226 8.44897 7.53557Z" fill="#DA04F2"/>
</svg>
