<svg width="13" height="12" viewBox="0 0 13 12" fill="none" xmlns="http://www.w3.org/2000/svg">
<path fill-rule="evenodd" clip-rule="evenodd" d="M7.82104 0.166992H5.59065C5.2827 0.166992 5.03305 0.428159 5.03305 0.750325V11.2503C5.03305 11.5725 5.2827 11.8337 5.59065 11.8337H7.82104C8.12899 11.8337 8.37864 11.5725 8.37864 11.2503V0.750325C8.37864 0.428159 8.12899 0.166992 7.82104 0.166992ZM6.14825 10.667V1.33366H7.26345V10.667H6.14825ZM10.0514 3.08366H12.2818C12.5898 3.08366 12.8394 3.34483 12.8394 3.66699V11.2503C12.8394 11.5725 12.5898 11.8337 12.2818 11.8337H10.0514C9.74348 11.8337 9.49384 11.5725 9.49384 11.2503V3.66699C9.49384 3.34483 9.74348 3.08366 10.0514 3.08366ZM3.36026 6.00033H1.12986C0.821911 6.00033 0.572266 6.26149 0.572266 6.58366V11.2503C0.572266 11.5725 0.821911 11.8337 1.12986 11.8337H3.36026C3.66821 11.8337 3.91785 11.5725 3.91785 11.2503V6.58366C3.91785 6.26149 3.66821 6.00033 3.36026 6.00033ZM10.609 4.25033V10.667H11.7242V4.25033H10.609ZM2.80266 10.667H1.68747V7.16699H2.80266V10.667Z" fill="#DA04F2"/>
<mask id="mask0" mask-type="alpha" maskUnits="userSpaceOnUse" x="0" y="0" width="13" height="12">
<path fill-rule="evenodd" clip-rule="evenodd" d="M7.82104 0.166992H5.59065C5.2827 0.166992 5.03305 0.428159 5.03305 0.750325V11.2503C5.03305 11.5725 5.2827 11.8337 5.59065 11.8337H7.82104C8.12899 11.8337 8.37864 11.5725 8.37864 11.2503V0.750325C8.37864 0.428159 8.12899 0.166992 7.82104 0.166992ZM6.14825 10.667V1.33366H7.26345V10.667H6.14825ZM10.0514 3.08366H12.2818C12.5898 3.08366 12.8394 3.34483 12.8394 3.66699V11.2503C12.8394 11.5725 12.5898 11.8337 12.2818 11.8337H10.0514C9.74348 11.8337 9.49384 11.5725 9.49384 11.2503V3.66699C9.49384 3.34483 9.74348 3.08366 10.0514 3.08366ZM3.36026 6.00033H1.12986C0.821911 6.00033 0.572266 6.26149 0.572266 6.58366V11.2503C0.572266 11.5725 0.821911 11.8337 1.12986 11.8337H3.36026C3.66821 11.8337 3.91785 11.5725 3.91785 11.2503V6.58366C3.91785 6.26149 3.66821 6.00033 3.36026 6.00033ZM10.609 4.25033V10.667H11.7242V4.25033H10.609ZM2.80266 10.667H1.68747V7.16699H2.80266V10.667Z" fill="white"/>
</mask>
<g mask="url(#mask0)">
</g>
</svg>
