<svg width="24" height="11" viewBox="0 0 24 11" fill="none" xmlns="http://www.w3.org/2000/svg">
<g clip-path="url(#clip0)">
<path d="M18 10.7027C15.0535 10.7027 12.6487 8.29775 12.6487 5.35135C12.6487 2.40478 15.0536 0 18 0C20.9466 0 23.3514 2.40495 23.3514 5.35135C23.3514 8.29792 20.9464 10.7027 18 10.7027ZM18 0.627111C15.3951 0.627111 13.2758 2.74639 13.2758 5.35135C13.2758 7.95631 15.3951 10.0756 18 10.0756C20.605 10.0756 22.7243 7.95631 22.7243 5.35135C22.7243 2.74639 20.605 0.627111 18 0.627111Z" fill="black"/>
<path d="M18 9.44841C15.7496 9.44841 13.9028 7.60121 13.9028 5.35128C13.9028 3.10093 15.7501 1.25415 18 1.25415C20.2503 1.25415 22.0971 3.10135 22.0971 5.35128C22.0971 7.60163 20.2499 9.44841 18 9.44841ZM18 1.88126C16.0866 1.88126 14.5299 3.4379 14.5299 5.35128C14.5299 7.26466 16.0866 8.8213 18 8.8213C19.9133 8.8213 21.47 7.26466 21.47 5.35128C21.47 3.4379 19.9133 1.88126 18 1.88126Z" fill="black"/>
<g clip-path="url(#clip1)">
<path d="M17.9999 8.23598C16.4116 8.23598 15.1152 6.93956 15.1152 5.35127C15.1152 3.76288 16.4117 2.46655 17.9999 2.46655C19.5883 2.46655 20.8847 3.76297 20.8847 5.35127C20.8847 6.93965 19.5882 8.23598 17.9999 8.23598ZM17.9999 2.80461C16.5957 2.80461 15.4533 3.94703 15.4533 5.35127C15.4533 6.7555 16.5957 7.89793 17.9999 7.89793C19.4042 7.89793 20.5466 6.7555 20.5466 5.35127C20.5466 3.94703 19.4042 2.80461 17.9999 2.80461Z" fill="black"/>
<path d="M17.9999 7.56004C16.7868 7.56004 15.7913 6.56428 15.7913 5.35143C15.7913 4.13835 16.787 3.14282 17.9999 3.14282C19.2129 3.14282 20.2085 4.13858 20.2085 5.35143C20.2085 6.56451 19.2127 7.56004 17.9999 7.56004ZM17.9999 3.48087C16.9684 3.48087 16.1293 4.32 16.1293 5.35143C16.1293 6.38286 16.9684 7.22199 17.9999 7.22199C19.0313 7.22199 19.8704 6.38286 19.8704 5.35143C19.8704 4.32 19.0313 3.48087 17.9999 3.48087Z" fill="black"/>
</g>
</g>
<g clip-path="url(#clip2)">
<path d="M5.35135 10.7027C2.40478 10.7027 0 8.29775 0 5.35135C0 2.40478 2.40495 0 5.35135 0C8.29792 0 10.7027 2.40495 10.7027 5.35135C10.7027 8.29792 8.29775 10.7027 5.35135 10.7027ZM5.35135 0.627111C2.74639 0.627111 0.627111 2.74639 0.627111 5.35135C0.627111 7.95631 2.74639 10.0756 5.35135 10.0756C7.95631 10.0756 10.0756 7.95631 10.0756 5.35135C10.0756 2.74639 7.95631 0.627111 5.35135 0.627111Z" fill="black"/>
<path d="M5.35128 9.44841C3.10093 9.44841 1.25415 7.60121 1.25415 5.35128C1.25415 3.10093 3.10137 1.25415 5.35128 1.25415C7.60163 1.25415 9.44841 3.10135 9.44841 5.35128C9.44841 7.60163 7.60119 9.44841 5.35128 9.44841ZM5.35128 1.88126C3.4379 1.88126 1.88126 3.4379 1.88126 5.35128C1.88126 7.26466 3.4379 8.8213 5.35128 8.8213C7.26466 8.8213 8.8213 7.26466 8.8213 5.35128C8.8213 3.4379 7.26466 1.88126 5.35128 1.88126Z" fill="black"/>
<g clip-path="url(#clip3)">
<path d="M5.35127 8.23598C3.76288 8.23598 2.46655 6.93956 2.46655 5.35127C2.46655 3.76288 3.76297 2.46655 5.35127 2.46655C6.93965 2.46655 8.23598 3.76297 8.23598 5.35127C8.23598 6.93965 6.93956 8.23598 5.35127 8.23598ZM5.35127 2.80461C3.94703 2.80461 2.80461 3.94703 2.80461 5.35127C2.80461 6.7555 3.94703 7.89793 5.35127 7.89793C6.7555 7.89793 7.89793 6.7555 7.89793 5.35127C7.89793 3.94703 6.7555 2.80461 5.35127 2.80461Z" fill="black"/>
<path d="M5.35119 7.56004C4.13811 7.56004 3.14258 6.56428 3.14258 5.35143C3.14258 4.13835 4.13834 3.14282 5.35119 3.14282C6.56426 3.14282 7.55979 4.13858 7.55979 5.35143C7.55979 6.56451 6.56403 7.56004 5.35119 7.56004ZM5.35119 3.48087C4.31976 3.48087 3.48063 4.32 3.48063 5.35143C3.48063 6.38286 4.31976 7.22199 5.35119 7.22199C6.38262 7.22199 7.22174 6.38286 7.22174 5.35143C7.22174 4.32 6.38262 3.48087 5.35119 3.48087Z" fill="black"/>
</g>
</g>
<defs>
<clipPath id="clip0">
<rect width="10.7027" height="10.7027" fill="white" transform="translate(12.6487)"/>
</clipPath>
<clipPath id="clip1">
<rect width="5.76943" height="5.76943" fill="white" transform="translate(15.1152 2.46655)"/>
</clipPath>
<clipPath id="clip2">
<rect width="10.7027" height="10.7027" fill="white"/>
</clipPath>
<clipPath id="clip3">
<rect width="5.76943" height="5.76943" fill="white" transform="translate(2.46655 2.46655)"/>
</clipPath>
</defs>
</svg>
