<svg width="12" height="11" viewBox="0 0 12 11" fill="none" xmlns="http://www.w3.org/2000/svg">
<g clip-path="url(#clip0)">
<path d="M6.00003 10.7027C3.05347 10.7027 0.648682 8.29775 0.648682 5.35135C0.648682 2.40478 3.05363 0 6.00003 0C8.9466 0 11.3514 2.40495 11.3514 5.35135C11.3514 8.29792 8.94643 10.7027 6.00003 10.7027ZM6.00003 0.627111C3.39507 0.627111 1.27579 2.74639 1.27579 5.35135C1.27579 7.95631 3.39507 10.0756 6.00003 10.0756C8.60499 10.0756 10.7243 7.95631 10.7243 5.35135C10.7243 2.74639 8.60499 0.627111 6.00003 0.627111Z" fill="black"/>
<path d="M5.99996 9.44841C3.74961 9.44841 1.90283 7.60121 1.90283 5.35128C1.90283 3.10093 3.75005 1.25415 5.99996 1.25415C8.25031 1.25415 10.0971 3.10135 10.0971 5.35128C10.0971 7.60163 8.24987 9.44841 5.99996 9.44841ZM5.99996 1.88126C4.08658 1.88126 2.52994 3.4379 2.52994 5.35128C2.52994 7.26466 4.08658 8.8213 5.99996 8.8213C7.91334 8.8213 9.46998 7.26466 9.46998 5.35128C9.46998 3.4379 7.91334 1.88126 5.99996 1.88126Z" fill="black"/>
<g clip-path="url(#clip1)">
<path d="M5.99995 8.23598C4.41156 8.23598 3.11523 6.93956 3.11523 5.35127C3.11523 3.76288 4.41165 2.46655 5.99995 2.46655C7.58833 2.46655 8.88466 3.76297 8.88466 5.35127C8.88466 6.93965 7.58824 8.23598 5.99995 8.23598ZM5.99995 2.80461C4.59571 2.80461 3.45329 3.94703 3.45329 5.35127C3.45329 6.7555 4.59571 7.89793 5.99995 7.89793C7.40418 7.89793 8.54661 6.7555 8.54661 5.35127C8.54661 3.94703 7.40418 2.80461 5.99995 2.80461Z" fill="black"/>
<path d="M5.99987 7.56004C4.78679 7.56004 3.79126 6.56428 3.79126 5.35143C3.79126 4.13835 4.78703 3.14282 5.99987 3.14282C7.21295 3.14282 8.20848 4.13858 8.20848 5.35143C8.20848 6.56451 7.21271 7.56004 5.99987 7.56004ZM5.99987 3.48087C4.96844 3.48087 4.12931 4.32 4.12931 5.35143C4.12931 6.38286 4.96844 7.22199 5.99987 7.22199C7.0313 7.22199 7.87042 6.38286 7.87042 5.35143C7.87042 4.32 7.0313 3.48087 5.99987 3.48087Z" fill="black"/>
</g>
</g>
<defs>
<clipPath id="clip0">
<rect width="10.7027" height="10.7027" fill="white" transform="translate(0.648682)"/>
</clipPath>
<clipPath id="clip1">
<rect width="5.76943" height="5.76943" fill="white" transform="translate(3.11523 2.46655)"/>
</clipPath>
</defs>
</svg>
