<svg width="20" height="20" viewBox="0 0 20 20" fill="none" xmlns="http://www.w3.org/2000/svg">
<g clip-path="url(#clip0)">
<path d="M19.8635 9.5801C18.6495 7.98963 17.1915 6.60127 15.5436 5.46657L18.3621 2.64802C18.6459 2.37397 18.6537 1.9218 18.3797 1.63804C18.1056 1.35428 17.6535 1.34642 17.3697 1.62047C17.3638 1.6262 17.3579 1.63206 17.3521 1.63804L14.2729 4.71444C12.9622 3.99307 11.4959 3.60087 10.0001 3.57158C4.57153 3.57158 0.315156 9.33439 0.136573 9.58006C-0.0454428 9.83046 -0.0454428 10.1696 0.136573 10.42C1.35054 12.0105 2.80855 13.3989 4.45652 14.5336L1.63798 17.3521C1.35422 17.6262 1.34635 18.0783 1.6204 18.3621C1.89445 18.6459 2.34662 18.6537 2.63038 18.3797C2.63632 18.3739 2.64218 18.3681 2.64796 18.3621L5.7272 15.2857C7.03789 16.0071 8.50422 16.3993 10 16.4286C15.4286 16.4286 19.6849 10.6658 19.8635 10.42C20.0456 10.1697 20.0456 9.83051 19.8635 9.5801ZM5.49509 13.4972C4.04001 12.5281 2.73572 11.3497 1.62442 10.0001C2.67583 8.72653 6.08579 5.00012 10.0001 5.00012C11.1137 5.02264 12.2086 5.29095 13.2064 5.78582L11.9664 7.02582C10.3258 5.93661 8.11286 6.38359 7.02366 8.0242C6.23022 9.2193 6.23022 10.7735 7.02366 11.9686L5.49509 13.4972ZM11.9286 9.08223C12.0684 9.36808 12.1417 9.68189 12.1429 10.0001C12.1429 11.1835 11.1835 12.1429 10.0001 12.1429C9.68186 12.1417 9.36805 12.0684 9.0822 11.9286L11.9286 9.08223ZM8.07151 10.9179C7.93172 10.6321 7.85844 10.3183 7.85723 10C7.85723 8.81659 8.81661 7.85721 10.0001 7.85721C10.3183 7.85843 10.6321 7.93171 10.9179 8.0715L8.07151 10.9179ZM10.0001 15C8.88642 14.9775 7.79156 14.7092 6.79368 14.2143L8.03368 12.9743C9.67428 14.0635 11.8873 13.6165 12.9765 11.9759C13.7699 10.7808 13.7699 9.22662 12.9765 8.03153L14.505 6.50295C15.9601 7.47209 17.2644 8.65048 18.3757 10C17.3243 11.2737 13.9143 15 10.0001 15Z" fill="#979797"/>
</g>
<defs>
<clipPath id="clip0">
<rect width="20" height="20" fill="white"/>
</clipPath>
</defs>
</svg>
