<svg width="13" height="14" viewBox="0 0 13 14" fill="none" xmlns="http://www.w3.org/2000/svg">
<path fill-rule="evenodd" clip-rule="evenodd" d="M8.63611 1.16634V2.57463L12.3216 4.26659C12.43 4.37106 12.4922 4.50815 12.4962 4.65162L12.4964 4.66634V11.6663C12.4964 12.6328 11.6323 13.4163 10.5663 13.4163H2.84567C1.77968 13.4163 0.915527 12.6328 0.915527 11.6663V2.33301C0.915527 1.36651 1.77968 0.583008 2.84567 0.583008H7.99273C8.34806 0.583008 8.63611 0.844175 8.63611 1.16634ZM2.84567 1.74967H7.34935L11.2096 5.24967V11.6663C11.2096 11.9885 10.9216 12.2497 10.5663 12.2497H2.84567C2.49034 12.2497 2.20229 11.9885 2.20229 11.6663V2.33301C2.20229 2.01084 2.49034 1.74967 2.84567 1.74967ZM4.13243 6.99967H9.2795C9.63483 6.99967 9.92288 7.26084 9.92288 7.58301C9.92288 7.90517 9.63483 8.16634 9.2795 8.16634H4.13243C3.7771 8.16634 3.48905 7.90517 3.48905 7.58301C3.48905 7.26084 3.7771 6.99967 4.13243 6.99967ZM9.2795 9.33301H4.13243C3.7771 9.33301 3.48905 9.59418 3.48905 9.91634C3.48905 10.2385 3.7771 10.4997 4.13243 10.4997H9.2795C9.63483 10.4997 9.92288 10.2385 9.92288 9.91634C9.92288 9.59418 9.63483 9.33301 9.2795 9.33301ZM4.13243 4.66634H5.4192C5.77453 4.66634 6.06258 4.92751 6.06258 5.24967C6.06258 5.57184 5.77453 5.83301 5.4192 5.83301H4.13243C3.7771 5.83301 3.48905 5.57184 3.48905 5.24967C3.48905 4.92751 3.7771 4.66634 4.13243 4.66634Z" fill="#565656"/>
<mask id="mask0" mask-type="alpha" maskUnits="userSpaceOnUse" x="0" y="0" width="13" height="14">
<path fill-rule="evenodd" clip-rule="evenodd" d="M8.63611 1.16634V2.57463L12.3216 4.26659C12.43 4.37106 12.4922 4.50815 12.4962 4.65162L12.4964 4.66634V11.6663C12.4964 12.6328 11.6323 13.4163 10.5663 13.4163H2.84567C1.77968 13.4163 0.915527 12.6328 0.915527 11.6663V2.33301C0.915527 1.36651 1.77968 0.583008 2.84567 0.583008H7.99273C8.34806 0.583008 8.63611 0.844175 8.63611 1.16634ZM2.84567 1.74967H7.34935L11.2096 5.24967V11.6663C11.2096 11.9885 10.9216 12.2497 10.5663 12.2497H2.84567C2.49034 12.2497 2.20229 11.9885 2.20229 11.6663V2.33301C2.20229 2.01084 2.49034 1.74967 2.84567 1.74967ZM4.13243 6.99967H9.2795C9.63483 6.99967 9.92288 7.26084 9.92288 7.58301C9.92288 7.90517 9.63483 8.16634 9.2795 8.16634H4.13243C3.7771 8.16634 3.48905 7.90517 3.48905 7.58301C3.48905 7.26084 3.7771 6.99967 4.13243 6.99967ZM9.2795 9.33301H4.13243C3.7771 9.33301 3.48905 9.59418 3.48905 9.91634C3.48905 10.2385 3.7771 10.4997 4.13243 10.4997H9.2795C9.63483 10.4997 9.92288 10.2385 9.92288 9.91634C9.92288 9.59418 9.63483 9.33301 9.2795 9.33301ZM4.13243 4.66634H5.4192C5.77453 4.66634 6.06258 4.92751 6.06258 5.24967C6.06258 5.57184 5.77453 5.83301 5.4192 5.83301H4.13243C3.7771 5.83301 3.48905 5.57184 3.48905 5.24967C3.48905 4.92751 3.7771 4.66634 4.13243 4.66634Z" fill="white"/>
</mask>
<g mask="url(#mask0)">
</g>
</svg>
