<svg width="14" height="14" viewBox="0 0 14 14" fill="none" xmlns="http://www.w3.org/2000/svg">
<g clip-path="url(#clip0)">
<path d="M4.99489 3.06553C5.24836 3.71299 5.83553 4.17008 6.5254 4.25695V5.24407C6.60342 5.22772 6.68297 5.21977 6.76269 5.22034H7.23726C7.31698 5.21977 7.39653 5.22772 7.47455 5.24407V4.25695C8.16442 4.17008 8.75159 3.71299 9.00506 3.06553C10.0966 2.83892 10.3294 1.38647 10.3775 0.760271C10.3874 0.629502 10.3423 0.500543 10.2532 0.404339C10.1624 0.306798 10.0352 0.25136 9.90201 0.251288H9.13557V0.237288C9.13557 0.106238 9.02933 0 8.89828 0H5.10167C4.97062 0 4.86438 0.106238 4.86438 0.237288V0.251525H4.09794C3.96471 0.251598 3.8375 0.307036 3.74675 0.404576C3.65766 0.500795 3.61261 0.629743 3.62241 0.760508C3.67058 1.38647 3.90289 2.83892 4.99489 3.06553ZM9.90438 0.724203C9.86879 1.1881 9.72214 2.20298 9.12845 2.52332C9.13248 2.47349 9.13557 2.42366 9.13557 2.37288V0.725627L9.90438 0.724203ZM6.99997 0.711864H8.18641C8.31746 0.711864 8.4237 0.818102 8.4237 0.949153C8.4237 1.0802 8.31746 1.18644 8.18641 1.18644H6.99997C6.86892 1.18644 6.76269 1.0802 6.76269 0.949153C6.76269 0.818102 6.86892 0.711864 6.99997 0.711864ZM5.81353 0.711864H6.05082C6.18187 0.711864 6.28811 0.818102 6.28811 0.949153C6.28811 1.0802 6.18187 1.18644 6.05082 1.18644H5.81353C5.68248 1.18644 5.57625 1.0802 5.57625 0.949153C5.57625 0.818102 5.68248 0.711864 5.81353 0.711864ZM4.86438 0.726102V2.37288C4.86438 2.42366 4.86747 2.47349 4.8715 2.52332C4.27828 2.20298 4.1314 1.18834 4.09794 0.726102H4.86438Z" fill="url(#paint0_linear)"/>
<path d="M13.6441 11.6275H12.9322V10.9157C12.9322 10.6536 12.7197 10.4411 12.4576 10.4411H11.0339V9.72924H11.7458C11.8768 9.72924 11.9831 9.623 11.9831 9.49195V7.59365C11.9831 7.4626 11.8768 7.35636 11.7458 7.35636H11.0339V6.64449C11.0339 6.38239 10.8214 6.16992 10.5593 6.16992H8.18242C8.00967 5.93799 7.75779 5.77756 7.47458 5.71907C7.39656 5.70272 7.31701 5.69477 7.2373 5.69534H6.76272C6.683 5.69477 6.60346 5.70272 6.52543 5.71907C6.23905 5.7694 5.98446 5.93162 5.81784 6.16992H3.44069C3.17858 6.16992 2.96611 6.38239 2.96611 6.64449V7.35636H2.25425C2.12319 7.35636 2.01696 7.4626 2.01696 7.59365V9.49195C2.01696 9.623 2.12319 9.72924 2.25425 9.72924H2.96611V10.4411H1.54238C1.28028 10.4411 1.0678 10.6536 1.0678 10.9157V11.6275H0.35594C0.22489 11.6275 0.118652 11.7338 0.118652 11.8648V13.7631C0.118652 13.8942 0.22489 14.0004 0.35594 14.0004H2.25425C2.3853 14.0004 2.49153 13.8942 2.49153 13.7631V11.8648C2.49153 11.7338 2.3853 11.6275 2.25425 11.6275H1.54238V10.9157H4.86441V11.6275H4.15255C4.0215 11.6275 3.91526 11.7338 3.91526 11.8648V13.7631C3.91526 13.8942 4.0215 14.0004 4.15255 14.0004H6.05086C6.18191 14.0004 6.28814 13.8942 6.28814 13.7631V11.8648C6.28814 11.7338 6.18191 11.6275 6.05086 11.6275H5.33899V10.9157C5.33899 10.6536 5.12652 10.4411 4.86441 10.4411H3.44069V9.72924H4.15255C4.2836 9.72924 4.38984 9.623 4.38984 9.49195V7.59365C4.38984 7.4626 4.2836 7.35636 4.15255 7.35636H3.44069V6.64449H5.60001C5.58415 6.72259 5.5762 6.80209 5.57628 6.88178C5.57628 7.01283 5.68252 7.11907 5.81357 7.11907H8.18645C8.3175 7.11907 8.42374 7.01283 8.42374 6.88178C8.42313 6.80202 8.41447 6.72252 8.39787 6.64449H10.5593V7.35636H9.84747C9.71641 7.35636 9.61018 7.4626 9.61018 7.59365V9.49195C9.61018 9.623 9.71641 9.72924 9.84747 9.72924H10.5593V10.4411H9.1356C8.8735 10.4411 8.66102 10.6536 8.66102 10.9157V11.6275H7.94916C7.81811 11.6275 7.71187 11.7338 7.71187 11.8648V13.7631C7.71187 13.8942 7.81811 14.0004 7.94916 14.0004H9.84747C9.97852 14.0004 10.0848 13.8942 10.0848 13.7631V11.8648C10.0848 11.7338 9.97852 11.6275 9.84747 11.6275H9.1356V10.9157H12.4576V11.6275H11.7458C11.6147 11.6275 11.5085 11.7338 11.5085 11.8648V13.7631C11.5085 13.8942 11.6147 14.0004 11.7458 14.0004H13.6441C13.7751 14.0004 13.8814 13.8942 13.8814 13.7631V11.8648C13.8814 11.7338 13.7751 11.6275 13.6441 11.6275Z" fill="url(#paint1_linear)"/>
</g>
<defs>
<linearGradient id="paint0_linear" x1="6.99998" y1="0" x2="6.99998" y2="5.24407" gradientUnits="userSpaceOnUse">
<stop stop-color="#6C63FF"/>
<stop offset="0.237846" stop-color="#4D7CFE"/>
<stop offset="1" stop-color="#DA04F2"/>
</linearGradient>
<linearGradient id="paint1_linear" x1="7.00001" y1="5.69531" x2="7.00001" y2="14.0004" gradientUnits="userSpaceOnUse">
<stop stop-color="#6C63FF"/>
<stop offset="0.237846" stop-color="#4D7CFE"/>
<stop offset="1" stop-color="#DA04F2"/>
</linearGradient>
<clipPath id="clip0">
<rect width="14" height="14" fill="white"/>
</clipPath>
</defs>
</svg>
