<svg width="129" height="25" viewBox="0 0 129 25" fill="none" xmlns="http://www.w3.org/2000/svg">
<path d="M20.32 17C20.24 17 20.172 16.976 20.116 16.928C20.068 16.872 20.044 16.804 20.044 16.724V8.888C20.044 8.8 20.068 8.732 20.116 8.684C20.172 8.628 20.24 8.6 20.32 8.6H23.368C24.272 8.6 24.984 8.82 25.504 9.26C26.024 9.7 26.284 10.336 26.284 11.168C26.284 12 26.024 12.636 25.504 13.076C24.992 13.508 24.28 13.724 23.368 13.724H21.244V16.724C21.244 16.804 21.216 16.872 21.16 16.928C21.104 16.976 21.036 17 20.956 17H20.32ZM23.308 12.716C23.892 12.716 24.332 12.584 24.628 12.32C24.932 12.056 25.084 11.672 25.084 11.168C25.084 10.664 24.936 10.28 24.64 10.016C24.344 9.744 23.9 9.608 23.308 9.608H21.232V12.716H23.308ZM29.21 17.12C28.818 17.12 28.454 17.04 28.118 16.88C27.782 16.72 27.514 16.504 27.314 16.232C27.122 15.952 27.026 15.644 27.026 15.308C27.026 14.78 27.242 14.348 27.674 14.012C28.114 13.668 28.706 13.444 29.45 13.34L31.238 13.088V12.74C31.238 11.924 30.77 11.516 29.834 11.516C29.482 11.516 29.194 11.592 28.97 11.744C28.746 11.888 28.578 12.06 28.466 12.26C28.442 12.332 28.41 12.384 28.37 12.416C28.338 12.448 28.29 12.464 28.226 12.464H27.71C27.638 12.464 27.574 12.44 27.518 12.392C27.47 12.336 27.446 12.272 27.446 12.2C27.454 12.008 27.542 11.792 27.71 11.552C27.886 11.304 28.154 11.092 28.514 10.916C28.874 10.732 29.318 10.64 29.846 10.64C30.742 10.64 31.386 10.852 31.778 11.276C32.17 11.692 32.366 12.212 32.366 12.836V16.724C32.366 16.804 32.338 16.872 32.282 16.928C32.234 16.976 32.17 17 32.09 17H31.538C31.458 17 31.39 16.976 31.334 16.928C31.286 16.872 31.262 16.804 31.262 16.724V16.208C31.086 16.464 30.83 16.68 30.494 16.856C30.158 17.032 29.73 17.12 29.21 17.12ZM29.462 16.22C29.982 16.22 30.406 16.052 30.734 15.716C31.07 15.372 31.238 14.88 31.238 14.24V13.904L29.846 14.108C29.278 14.188 28.85 14.324 28.562 14.516C28.274 14.7 28.13 14.936 28.13 15.224C28.13 15.544 28.262 15.792 28.526 15.968C28.79 16.136 29.102 16.22 29.462 16.22ZM34.3671 17C34.2871 17 34.2191 16.976 34.1631 16.928C34.1151 16.872 34.0911 16.804 34.0911 16.724V11.048C34.0911 10.968 34.1151 10.9 34.1631 10.844C34.2191 10.788 34.2871 10.76 34.3671 10.76H34.9191C34.9991 10.76 35.0671 10.788 35.1231 10.844C35.1791 10.9 35.2071 10.968 35.2071 11.048V11.576C35.5351 11.032 36.0951 10.76 36.8871 10.76H37.3551C37.4351 10.76 37.4991 10.788 37.5471 10.844C37.6031 10.892 37.6311 10.956 37.6311 11.036V11.528C37.6311 11.608 37.6031 11.672 37.5471 11.72C37.4991 11.768 37.4351 11.792 37.3551 11.792H36.6351C36.2031 11.792 35.8631 11.92 35.6151 12.176C35.3671 12.424 35.2431 12.764 35.2431 13.196V16.724C35.2431 16.804 35.2151 16.872 35.1591 16.928C35.1031 16.976 35.0351 17 34.9551 17H34.3671ZM41.0857 17C39.8217 17 39.1897 16.296 39.1897 14.888V11.72H38.2537C38.1737 11.72 38.1057 11.696 38.0497 11.648C38.0017 11.592 37.9777 11.524 37.9777 11.444V11.036C37.9777 10.956 38.0017 10.892 38.0497 10.844C38.1057 10.788 38.1737 10.76 38.2537 10.76H39.1897V8.756C39.1897 8.676 39.2137 8.612 39.2617 8.564C39.3177 8.508 39.3857 8.48 39.4657 8.48H40.0297C40.1097 8.48 40.1737 8.508 40.2217 8.564C40.2777 8.612 40.3057 8.676 40.3057 8.756V10.76H41.7937C41.8737 10.76 41.9377 10.788 41.9857 10.844C42.0417 10.892 42.0697 10.956 42.0697 11.036V11.444C42.0697 11.524 42.0417 11.592 41.9857 11.648C41.9377 11.696 41.8737 11.72 41.7937 11.72H40.3057V14.804C40.3057 15.204 40.3737 15.508 40.5097 15.716C40.6457 15.916 40.8697 16.016 41.1817 16.016H41.9137C41.9937 16.016 42.0577 16.044 42.1057 16.1C42.1617 16.148 42.1897 16.212 42.1897 16.292V16.724C42.1897 16.804 42.1617 16.872 42.1057 16.928C42.0577 16.976 41.9937 17 41.9137 17H41.0857ZM43.5172 9.596C43.4372 9.596 43.3692 9.572 43.3132 9.524C43.2652 9.468 43.2412 9.4 43.2412 9.32V8.672C43.2412 8.592 43.2652 8.524 43.3132 8.468C43.3692 8.412 43.4372 8.384 43.5172 8.384H44.2732C44.3532 8.384 44.4212 8.412 44.4772 8.468C44.5332 8.524 44.5612 8.592 44.5612 8.672V9.32C44.5612 9.4 44.5332 9.468 44.4772 9.524C44.4212 9.572 44.3532 9.596 44.2732 9.596H43.5172ZM43.6132 17C43.5332 17 43.4652 16.976 43.4092 16.928C43.3612 16.872 43.3372 16.804 43.3372 16.724V11.036C43.3372 10.956 43.3612 10.892 43.4092 10.844C43.4652 10.788 43.5332 10.76 43.6132 10.76H44.1892C44.2692 10.76 44.3332 10.788 44.3812 10.844C44.4372 10.892 44.4652 10.956 44.4652 11.036V16.724C44.4652 16.804 44.4372 16.872 44.3812 16.928C44.3332 16.976 44.2692 17 44.1892 17H43.6132ZM47.9835 17.12C47.5915 17.12 47.2275 17.04 46.8915 16.88C46.5555 16.72 46.2875 16.504 46.0875 16.232C45.8955 15.952 45.7995 15.644 45.7995 15.308C45.7995 14.78 46.0155 14.348 46.4475 14.012C46.8875 13.668 47.4795 13.444 48.2235 13.34L50.0115 13.088V12.74C50.0115 11.924 49.5435 11.516 48.6075 11.516C48.2555 11.516 47.9675 11.592 47.7435 11.744C47.5195 11.888 47.3515 12.06 47.2395 12.26C47.2155 12.332 47.1835 12.384 47.1435 12.416C47.1115 12.448 47.0635 12.464 46.9995 12.464H46.4835C46.4115 12.464 46.3475 12.44 46.2915 12.392C46.2435 12.336 46.2195 12.272 46.2195 12.2C46.2275 12.008 46.3155 11.792 46.4835 11.552C46.6595 11.304 46.9275 11.092 47.2875 10.916C47.6475 10.732 48.0915 10.64 48.6195 10.64C49.5155 10.64 50.1595 10.852 50.5515 11.276C50.9435 11.692 51.1395 12.212 51.1395 12.836V16.724C51.1395 16.804 51.1115 16.872 51.0555 16.928C51.0075 16.976 50.9435 17 50.8635 17H50.3115C50.2315 17 50.1635 16.976 50.1075 16.928C50.0595 16.872 50.0355 16.804 50.0355 16.724V16.208C49.8595 16.464 49.6035 16.68 49.2675 16.856C48.9315 17.032 48.5035 17.12 47.9835 17.12ZM48.2355 16.22C48.7555 16.22 49.1795 16.052 49.5075 15.716C49.8435 15.372 50.0115 14.88 50.0115 14.24V13.904L48.6195 14.108C48.0515 14.188 47.6235 14.324 47.3355 14.516C47.0475 14.7 46.9035 14.936 46.9035 15.224C46.9035 15.544 47.0355 15.792 47.2995 15.968C47.5635 16.136 47.8755 16.22 48.2355 16.22ZM53.1526 17C53.0726 17 53.0046 16.976 52.9486 16.928C52.9006 16.872 52.8766 16.804 52.8766 16.724V8.756C52.8766 8.676 52.9006 8.612 52.9486 8.564C53.0046 8.508 53.0726 8.48 53.1526 8.48H53.7166C53.7966 8.48 53.8606 8.508 53.9086 8.564C53.9646 8.612 53.9926 8.676 53.9926 8.756V16.724C53.9926 16.804 53.9646 16.872 53.9086 16.928C53.8606 16.976 53.7966 17 53.7166 17H53.1526ZM60.8839 17.12C60.3239 17.12 59.8519 17.032 59.4679 16.856C59.0919 16.672 58.8079 16.464 58.6159 16.232C58.4319 16 58.3399 15.808 58.3399 15.656C58.3399 15.576 58.3679 15.516 58.4239 15.476C58.4879 15.428 58.5519 15.404 58.6159 15.404H59.1559C59.2359 15.404 59.3079 15.444 59.3719 15.524C59.5639 15.748 59.7719 15.924 59.9959 16.052C60.2199 16.18 60.5199 16.244 60.8959 16.244C61.3119 16.244 61.6479 16.164 61.9039 16.004C62.1679 15.836 62.2999 15.608 62.2999 15.32C62.2999 15.128 62.2439 14.972 62.1319 14.852C62.0279 14.724 61.8439 14.616 61.5799 14.528C61.3239 14.432 60.9399 14.328 60.4279 14.216C59.7319 14.064 59.2359 13.844 58.9399 13.556C58.6519 13.268 58.5079 12.896 58.5079 12.44C58.5079 12.136 58.5959 11.848 58.7719 11.576C58.9559 11.296 59.2199 11.072 59.5639 10.904C59.9159 10.728 60.3359 10.64 60.8239 10.64C61.3359 10.64 61.7719 10.724 62.1319 10.892C62.4919 11.06 62.7599 11.26 62.9359 11.492C63.1199 11.716 63.2119 11.904 63.2119 12.056C63.2119 12.128 63.1839 12.188 63.1279 12.236C63.0799 12.284 63.0199 12.308 62.9479 12.308H62.4439C62.3479 12.308 62.2679 12.268 62.2039 12.188C62.0759 12.036 61.9639 11.92 61.8679 11.84C61.7799 11.752 61.6479 11.676 61.4719 11.612C61.3039 11.548 61.0879 11.516 60.8239 11.516C60.4399 11.516 60.1439 11.6 59.9359 11.768C59.7279 11.928 59.6239 12.14 59.6239 12.404C59.6239 12.572 59.6679 12.716 59.7559 12.836C59.8439 12.948 60.0119 13.052 60.2599 13.148C60.5159 13.244 60.8839 13.344 61.3639 13.448C62.1239 13.608 62.6599 13.84 62.9719 14.144C63.2919 14.44 63.4519 14.82 63.4519 15.284C63.4519 15.628 63.3519 15.94 63.1519 16.22C62.9519 16.5 62.6559 16.72 62.2639 16.88C61.8799 17.04 61.4199 17.12 60.8839 17.12ZM66.5811 17.12C66.1891 17.12 65.8251 17.04 65.4891 16.88C65.1531 16.72 64.8851 16.504 64.6851 16.232C64.4931 15.952 64.3971 15.644 64.3971 15.308C64.3971 14.78 64.6131 14.348 65.0451 14.012C65.4851 13.668 66.0771 13.444 66.8211 13.34L68.6091 13.088V12.74C68.6091 11.924 68.1411 11.516 67.2051 11.516C66.8531 11.516 66.5651 11.592 66.3411 11.744C66.1171 11.888 65.9491 12.06 65.8371 12.26C65.8131 12.332 65.7811 12.384 65.7411 12.416C65.7091 12.448 65.6611 12.464 65.5971 12.464H65.0811C65.0091 12.464 64.9451 12.44 64.8891 12.392C64.8411 12.336 64.8171 12.272 64.8171 12.2C64.8251 12.008 64.9131 11.792 65.0811 11.552C65.2571 11.304 65.5251 11.092 65.8851 10.916C66.2451 10.732 66.6891 10.64 67.2171 10.64C68.1131 10.64 68.7571 10.852 69.1491 11.276C69.5411 11.692 69.7371 12.212 69.7371 12.836V16.724C69.7371 16.804 69.7091 16.872 69.6531 16.928C69.6051 16.976 69.5411 17 69.4611 17H68.9091C68.8291 17 68.7611 16.976 68.7051 16.928C68.6571 16.872 68.6331 16.804 68.6331 16.724V16.208C68.4571 16.464 68.2011 16.68 67.8651 16.856C67.5291 17.032 67.1011 17.12 66.5811 17.12ZM66.8331 16.22C67.3531 16.22 67.7771 16.052 68.1051 15.716C68.4411 15.372 68.6091 14.88 68.6091 14.24V13.904L67.2171 14.108C66.6491 14.188 66.2211 14.324 65.9331 14.516C65.6451 14.7 65.5011 14.936 65.5011 15.224C65.5011 15.544 65.6331 15.792 65.8971 15.968C66.1611 16.136 66.4731 16.22 66.8331 16.22ZM72.3036 17C72.2236 17 72.1556 16.976 72.0996 16.928C72.0516 16.872 72.0276 16.804 72.0276 16.724V11.72H71.0076C70.9276 11.72 70.8596 11.696 70.8036 11.648C70.7556 11.592 70.7316 11.524 70.7316 11.444V11.036C70.7316 10.956 70.7556 10.892 70.8036 10.844C70.8596 10.788 70.9276 10.76 71.0076 10.76H72.0276V10.16C72.0276 8.8 72.7156 8.12 74.0916 8.12H74.8116C74.8916 8.12 74.9556 8.148 75.0036 8.204C75.0596 8.252 75.0876 8.316 75.0876 8.396V8.804C75.0876 8.884 75.0596 8.952 75.0036 9.008C74.9556 9.056 74.8916 9.08 74.8116 9.08H74.1156C73.7556 9.08 73.5036 9.176 73.3596 9.368C73.2156 9.552 73.1436 9.836 73.1436 10.22V10.76H74.6916C74.7716 10.76 74.8356 10.788 74.8836 10.844C74.9396 10.892 74.9676 10.956 74.9676 11.036V11.444C74.9676 11.524 74.9396 11.592 74.8836 11.648C74.8356 11.696 74.7716 11.72 74.6916 11.72H73.1436V16.724C73.1436 16.804 73.1156 16.872 73.0596 16.928C73.0116 16.976 72.9476 17 72.8676 17H72.3036ZM78.3996 17.12C77.5756 17.12 76.9156 16.868 76.4196 16.364C75.9316 15.852 75.6636 15.156 75.6156 14.276L75.6036 13.868L75.6156 13.472C75.6716 12.608 75.9436 11.92 76.4316 11.408C76.9276 10.896 77.5796 10.64 78.3876 10.64C79.2756 10.64 79.9636 10.924 80.4516 11.492C80.9396 12.052 81.1836 12.812 81.1836 13.772V13.976C81.1836 14.056 81.1556 14.124 81.0996 14.18C81.0516 14.228 80.9876 14.252 80.9076 14.252H76.7556V14.36C76.7796 14.88 76.9356 15.324 77.2236 15.692C77.5196 16.052 77.9076 16.232 78.3876 16.232C78.7556 16.232 79.0556 16.16 79.2876 16.016C79.5276 15.864 79.7036 15.708 79.8156 15.548C79.8876 15.452 79.9396 15.396 79.9716 15.38C80.0116 15.356 80.0796 15.344 80.1756 15.344H80.7636C80.8356 15.344 80.8956 15.364 80.9436 15.404C80.9916 15.444 81.0156 15.5 81.0156 15.572C81.0156 15.748 80.9036 15.96 80.6796 16.208C80.4636 16.456 80.1556 16.672 79.7556 16.856C79.3636 17.032 78.9116 17.12 78.3996 17.12ZM80.0436 13.424V13.388C80.0436 12.836 79.8916 12.388 79.5876 12.044C79.2916 11.692 78.8916 11.516 78.3876 11.516C77.8836 11.516 77.4836 11.692 77.1876 12.044C76.8996 12.388 76.7556 12.836 76.7556 13.388V13.424H80.0436ZM85.8479 17C85.7679 17 85.6999 16.976 85.6439 16.928C85.5959 16.872 85.5719 16.804 85.5719 16.724V8.756C85.5719 8.676 85.5959 8.612 85.6439 8.564C85.6999 8.508 85.7679 8.48 85.8479 8.48H86.4479C86.5279 8.48 86.5919 8.508 86.6399 8.564C86.6959 8.612 86.7239 8.676 86.7239 8.756V11.552C86.9559 11.256 87.2279 11.032 87.5399 10.88C87.8519 10.72 88.2399 10.64 88.7039 10.64C89.4719 10.64 90.0679 10.888 90.4919 11.384C90.9239 11.872 91.1399 12.524 91.1399 13.34V16.724C91.1399 16.804 91.1119 16.872 91.0559 16.928C91.0079 16.976 90.9439 17 90.8639 17H90.2639C90.1839 17 90.1159 16.976 90.0599 16.928C90.0119 16.872 89.9879 16.804 89.9879 16.724V13.4C89.9879 12.832 89.8479 12.392 89.5679 12.08C89.2959 11.768 88.8999 11.612 88.3799 11.612C87.8759 11.612 87.4719 11.772 87.1679 12.092C86.8719 12.404 86.7239 12.84 86.7239 13.4V16.724C86.7239 16.804 86.6959 16.872 86.6399 16.928C86.5919 16.976 86.5279 17 86.4479 17H85.8479ZM94.6124 17.12C94.2204 17.12 93.8564 17.04 93.5204 16.88C93.1844 16.72 92.9164 16.504 92.7164 16.232C92.5244 15.952 92.4284 15.644 92.4284 15.308C92.4284 14.78 92.6444 14.348 93.0764 14.012C93.5164 13.668 94.1084 13.444 94.8524 13.34L96.6404 13.088V12.74C96.6404 11.924 96.1724 11.516 95.2364 11.516C94.8844 11.516 94.5964 11.592 94.3724 11.744C94.1484 11.888 93.9804 12.06 93.8684 12.26C93.8444 12.332 93.8124 12.384 93.7724 12.416C93.7404 12.448 93.6924 12.464 93.6284 12.464H93.1124C93.0404 12.464 92.9764 12.44 92.9204 12.392C92.8724 12.336 92.8484 12.272 92.8484 12.2C92.8564 12.008 92.9444 11.792 93.1124 11.552C93.2884 11.304 93.5564 11.092 93.9164 10.916C94.2764 10.732 94.7204 10.64 95.2484 10.64C96.1444 10.64 96.7884 10.852 97.1804 11.276C97.5724 11.692 97.7684 12.212 97.7684 12.836V16.724C97.7684 16.804 97.7404 16.872 97.6844 16.928C97.6364 16.976 97.5724 17 97.4924 17H96.9404C96.8604 17 96.7924 16.976 96.7364 16.928C96.6884 16.872 96.6644 16.804 96.6644 16.724V16.208C96.4884 16.464 96.2324 16.68 95.8964 16.856C95.5604 17.032 95.1324 17.12 94.6124 17.12ZM94.8644 16.22C95.3844 16.22 95.8084 16.052 96.1364 15.716C96.4724 15.372 96.6404 14.88 96.6404 14.24V13.904L95.2484 14.108C94.6804 14.188 94.2524 14.324 93.9644 14.516C93.6764 14.7 93.5324 14.936 93.5324 15.224C93.5324 15.544 93.6644 15.792 93.9284 15.968C94.1924 16.136 94.5044 16.22 94.8644 16.22ZM99.7695 17C99.6895 17 99.6215 16.976 99.5655 16.928C99.5175 16.872 99.4935 16.804 99.4935 16.724V11.048C99.4935 10.968 99.5175 10.9 99.5655 10.844C99.6215 10.788 99.6895 10.76 99.7695 10.76H100.321C100.401 10.76 100.469 10.788 100.525 10.844C100.581 10.9 100.609 10.968 100.609 11.048V11.576C100.937 11.032 101.497 10.76 102.289 10.76H102.757C102.837 10.76 102.901 10.788 102.949 10.844C103.005 10.892 103.033 10.956 103.033 11.036V11.528C103.033 11.608 103.005 11.672 102.949 11.72C102.901 11.768 102.837 11.792 102.757 11.792H102.037C101.605 11.792 101.265 11.92 101.017 12.176C100.769 12.424 100.645 12.764 100.645 13.196V16.724C100.645 16.804 100.617 16.872 100.561 16.928C100.505 16.976 100.437 17 100.357 17H99.7695ZM107.136 17.12C106.272 17.12 105.616 16.82 105.168 16.22V16.724C105.168 16.804 105.14 16.872 105.084 16.928C105.036 16.976 104.972 17 104.892 17H104.34C104.26 17 104.192 16.976 104.136 16.928C104.088 16.872 104.064 16.804 104.064 16.724V8.756C104.064 8.676 104.088 8.612 104.136 8.564C104.192 8.508 104.26 8.48 104.34 8.48H104.928C105.008 8.48 105.072 8.508 105.12 8.564C105.168 8.612 105.192 8.676 105.192 8.756V11.516C105.664 10.932 106.312 10.64 107.136 10.64C107.968 10.64 108.596 10.916 109.02 11.468C109.444 12.012 109.672 12.696 109.704 13.52C109.712 13.608 109.716 13.728 109.716 13.88C109.716 14.032 109.712 14.152 109.704 14.24C109.672 15.072 109.444 15.76 109.02 16.304C108.596 16.848 107.968 17.12 107.136 17.12ZM106.884 16.148C107.452 16.148 107.864 15.972 108.12 15.62C108.384 15.268 108.528 14.804 108.552 14.228C108.56 14.148 108.564 14.032 108.564 13.88C108.564 12.368 108.004 11.612 106.884 11.612C106.348 11.612 105.936 11.788 105.648 12.14C105.36 12.492 105.208 12.904 105.192 13.376L105.18 13.844L105.192 14.3C105.216 14.804 105.364 15.24 105.636 15.608C105.916 15.968 106.332 16.148 106.884 16.148ZM113.745 17.12C112.865 17.12 112.181 16.872 111.693 16.376C111.213 15.88 110.957 15.22 110.925 14.396L110.913 13.88L110.925 13.364C110.957 12.548 111.217 11.892 111.705 11.396C112.193 10.892 112.873 10.64 113.745 10.64C114.617 10.64 115.297 10.892 115.785 11.396C116.273 11.892 116.533 12.548 116.565 13.364C116.573 13.452 116.577 13.624 116.577 13.88C116.577 14.136 116.573 14.308 116.565 14.396C116.533 15.22 116.273 15.88 115.785 16.376C115.305 16.872 114.625 17.12 113.745 17.12ZM113.745 16.196C114.249 16.196 114.645 16.036 114.933 15.716C115.229 15.396 115.389 14.936 115.413 14.336C115.421 14.256 115.425 14.104 115.425 13.88C115.425 13.656 115.421 13.504 115.413 13.424C115.389 12.824 115.229 12.364 114.933 12.044C114.645 11.724 114.249 11.564 113.745 11.564C113.241 11.564 112.841 11.724 112.545 12.044C112.249 12.364 112.093 12.824 112.077 13.424L112.065 13.88L112.077 14.336C112.093 14.936 112.249 15.396 112.545 15.716C112.841 16.036 113.241 16.196 113.745 16.196ZM120.407 17.12C119.647 17.12 119.059 16.876 118.643 16.388C118.227 15.892 118.019 15.236 118.019 14.42V11.036C118.019 10.956 118.043 10.892 118.091 10.844C118.147 10.788 118.215 10.76 118.295 10.76H118.895C118.975 10.76 119.039 10.788 119.087 10.844C119.143 10.892 119.171 10.956 119.171 11.036V14.36C119.171 15.552 119.691 16.148 120.731 16.148C121.235 16.148 121.635 15.992 121.931 15.68C122.227 15.36 122.375 14.92 122.375 14.36V11.036C122.375 10.956 122.399 10.892 122.447 10.844C122.503 10.788 122.571 10.76 122.651 10.76H123.251C123.331 10.76 123.395 10.788 123.443 10.844C123.491 10.892 123.515 10.956 123.515 11.036V16.724C123.515 16.804 123.491 16.872 123.443 16.928C123.395 16.976 123.331 17 123.251 17H122.687C122.607 17 122.539 16.976 122.483 16.928C122.435 16.872 122.411 16.804 122.411 16.724V16.196C122.187 16.5 121.915 16.732 121.595 16.892C121.275 17.044 120.879 17.12 120.407 17.12ZM125.574 17C125.494 17 125.426 16.976 125.37 16.928C125.322 16.872 125.298 16.804 125.298 16.724V11.048C125.298 10.968 125.322 10.9 125.37 10.844C125.426 10.788 125.494 10.76 125.574 10.76H126.126C126.206 10.76 126.274 10.788 126.33 10.844C126.386 10.9 126.414 10.968 126.414 11.048V11.576C126.742 11.032 127.302 10.76 128.094 10.76H128.562C128.642 10.76 128.706 10.788 128.754 10.844C128.81 10.892 128.838 10.956 128.838 11.036V11.528C128.838 11.608 128.81 11.672 128.754 11.72C128.706 11.768 128.642 11.792 128.562 11.792H127.842C127.41 11.792 127.07 11.92 126.822 12.176C126.574 12.424 126.45 12.764 126.45 13.196V16.724C126.45 16.804 126.422 16.872 126.366 16.928C126.31 16.976 126.242 17 126.162 17H125.574Z" fill="#757575"/>
<g clip-path="url(#clip0)">
<path d="M13.0666 8.8C12.5519 8.8 12.1333 9.2186 12.1333 9.73332C12.1333 10.248 12.5519 10.6666 13.0666 10.6666C13.5813 10.6666 13.9999 10.2481 13.9999 9.73332C13.9999 9.2186 13.5813 8.8 13.0666 8.8ZM13.0666 10.2C12.8093 10.2 12.5999 9.99071 12.5999 9.73332C12.5999 9.47596 12.8092 9.26664 13.0666 9.26664C13.324 9.26664 13.5333 9.47593 13.5333 9.73332C13.5333 9.99071 13.324 10.2 13.0666 10.2Z" fill="#6C63FF"/>
<path d="M0.933324 16.5C0.418605 16.5 0 16.9186 0 17.4333C0 17.948 0.418605 18.3666 0.933324 18.3666C1.44807 18.3666 1.86665 17.948 1.86665 17.4333C1.86665 16.9186 1.44807 16.5 0.933324 16.5ZM0.933324 17.9C0.675965 17.9 0.466648 17.6907 0.466648 17.4333C0.466648 17.1759 0.675937 16.9666 0.933324 16.9666C1.19068 16.9666 1.4 17.1759 1.4 17.4333C1.4 17.6907 1.19071 17.9 0.933324 17.9Z" fill="#6C63FF"/>
<path d="M12.6143 9.09493L10.6013 8.12311C10.4851 8.06686 10.3458 8.11586 10.2898 8.23186C10.2338 8.34782 10.2826 8.48736 10.3986 8.54336L12.4115 9.51518C12.4442 9.53104 12.4787 9.53851 12.5128 9.53851C12.5996 9.53851 12.6829 9.48997 12.723 9.40643C12.779 9.29047 12.7303 9.15093 12.6143 9.09493Z" fill="#6C63FF"/>
<path d="M10.5 18.1333C9.98523 18.1333 9.56665 18.5519 9.56665 19.0666C9.56665 19.5814 9.98523 20 10.5 20C11.0147 20 11.4333 19.5814 11.4333 19.0667C11.4333 18.552 11.0147 18.1333 10.5 18.1333ZM10.5 19.5333C10.2426 19.5333 10.0333 19.324 10.0333 19.0666C10.0333 18.8093 10.2426 18.6 10.5 18.6C10.7573 18.6 10.9666 18.8093 10.9666 19.0667C10.9666 19.3241 10.7573 19.5333 10.5 19.5333Z" fill="#6C63FF"/>
<path d="M10.0476 18.4283L8.03468 17.4565C7.91847 17.4002 7.77918 17.449 7.72318 17.5652C7.66718 17.6812 7.71593 17.8207 7.83192 17.8767L9.84489 18.8485C9.87757 18.8644 9.9121 18.8719 9.94615 18.8719C10.0329 18.8719 10.1163 18.8233 10.1564 18.7398C10.2124 18.6238 10.1636 18.4843 10.0476 18.4283Z" fill="#6C63FF"/>
<path d="M6.99998 12.3C6.48523 12.3 6.06665 12.7186 6.06665 13.2333C6.06665 13.7481 6.48526 14.1666 6.99998 14.1666C7.51472 14.1666 7.9333 13.748 7.9333 13.2333C7.9333 12.7186 7.51472 12.3 6.99998 12.3ZM6.99998 13.7C6.74262 13.7 6.5333 13.4907 6.5333 13.2333C6.5333 12.976 6.74259 12.7666 6.99998 12.7666C7.25734 12.7666 7.46665 12.9759 7.46665 13.2333C7.46665 13.4907 7.25734 13.7 6.99998 13.7Z" fill="#6C63FF"/>
<path d="M6.58981 12.6211L5.04352 11.4159C4.94177 11.3372 4.79527 11.3547 4.71591 11.4565C4.63681 11.5582 4.65477 11.7047 4.75652 11.7841L6.30281 12.9893C6.34552 13.0224 6.39592 13.0385 6.44609 13.0385C6.51563 13.0385 6.58423 13.0077 6.63042 12.9487C6.70952 12.8469 6.69156 12.7004 6.58981 12.6211Z" fill="#6C63FF"/>
<path d="M11.2 12.0667C9.7848 12.0667 8.6333 13.2182 8.6333 14.6334C8.6333 16.0485 9.7848 17.2 11.2 17.2C12.6151 17.2 13.7666 16.0485 13.7666 14.6334C13.7666 13.2182 12.6151 12.0667 11.2 12.0667ZM11.2 16.7333C10.0419 16.7333 9.09998 15.7914 9.09998 14.6333C9.09998 13.4753 10.0419 12.5333 11.2 12.5333C12.358 12.5333 13.3 13.4753 13.3 14.6333C13.3 15.7914 12.358 16.7333 11.2 16.7333Z" fill="#6C63FF"/>
<path d="M11.1999 13C10.6852 13 10.2666 13.4186 10.2666 13.9333C10.2666 14.4481 10.6852 14.8666 11.1999 14.8666C11.7147 14.8666 12.1332 14.448 12.1332 13.9333C12.1332 13.4186 11.7147 13 11.1999 13ZM11.1999 14.4C10.9426 14.4 10.7332 14.1907 10.7332 13.9333C10.7332 13.676 10.9425 13.4666 11.1999 13.4666C11.4573 13.4666 11.6666 13.6759 11.6666 13.9333C11.6666 14.1907 11.4573 14.4 11.1999 14.4Z" fill="#6C63FF"/>
<path d="M11.8768 15.3333H10.523C10.1243 15.3333 9.79993 15.649 9.79993 16.0368V16.6519C9.79993 16.7352 9.84425 16.8122 9.91636 16.854C10.3074 17.0803 10.7512 17.2 11.1999 17.2C11.6486 17.2 12.0924 17.0803 12.4835 16.854C12.5556 16.8124 12.5999 16.7352 12.5999 16.6521V16.0371C12.5999 15.649 12.2756 15.3333 11.8768 15.3333ZM12.1333 16.5128C11.5525 16.8021 10.8474 16.8021 10.2666 16.5128V16.0371C10.2666 15.9064 10.3816 15.8 10.523 15.8H11.8768C12.0182 15.8 12.1332 15.9064 12.1332 16.0371V16.5128H12.1333Z" fill="#6C63FF"/>
<path d="M5.6 14.8667C4.18482 14.8667 3.03333 16.0182 3.03333 17.4334C3.03333 18.8485 4.18482 20 5.6 20C7.01518 20 8.16667 18.8485 8.16667 17.4333C8.16667 16.0182 7.01518 14.8667 5.6 14.8667ZM5.6 19.5333C4.44197 19.5333 3.5 18.5914 3.5 17.4333C3.5 16.2753 4.44197 15.3333 5.6 15.3333C6.75803 15.3333 7.7 16.2753 7.7 17.4333C7.7 18.5914 6.75803 19.5333 5.6 19.5333Z" fill="#6C63FF"/>
<path d="M5.60007 15.8C5.08533 15.8 4.66675 16.2186 4.66675 16.7333C4.66675 17.2481 5.08535 17.6666 5.60007 17.6666C6.11479 17.6666 6.5334 17.248 6.5334 16.7333C6.5334 16.2186 6.11482 15.8 5.60007 15.8ZM5.60007 17.2C5.34271 17.2 5.1334 16.9907 5.1334 16.7333C5.1334 16.476 5.34269 16.2666 5.60007 16.2666C5.85743 16.2666 6.06675 16.4759 6.06675 16.7333C6.06675 16.9907 5.85743 17.2 5.60007 17.2Z" fill="#6C63FF"/>
<path d="M6.27684 18.1333H4.92306C4.5243 18.1333 4.19995 18.449 4.19995 18.8368V19.4519C4.19995 19.5352 4.24428 19.6122 4.31638 19.654C4.70745 19.8803 5.15124 20 5.59995 20C6.04866 20 6.49245 19.8803 6.88352 19.654C6.95563 19.6124 6.99995 19.5352 6.99995 19.4521V18.8371C6.99995 18.449 6.67563 18.1333 6.27684 18.1333ZM6.53327 19.3128C5.95249 19.6021 5.24738 19.6021 4.6666 19.3128V18.8371C4.6666 18.7064 4.78163 18.6 4.92303 18.6H6.27682C6.41821 18.6 6.53325 18.7064 6.53325 18.8371V19.3128H6.53327Z" fill="#6C63FF"/>
<path d="M2.56668 9.03333C1.1515 9.03333 0 10.1848 0 11.6C0 13.0152 1.1515 14.1667 2.56668 14.1667C3.98185 14.1667 5.13335 13.0152 5.13335 11.6C5.13332 10.1848 3.98182 9.03333 2.56668 9.03333ZM2.56668 13.7C1.40864 13.7 0.466676 12.758 0.466676 11.6C0.466676 10.442 1.40864 9.5 2.56668 9.5C3.72471 9.5 4.66668 10.442 4.66668 11.6C4.66668 12.758 3.72471 13.7 2.56668 13.7Z" fill="#6C63FF"/>
<path d="M2.56675 9.96667C2.052 9.96667 1.63342 10.3853 1.63342 10.9C1.63342 11.4147 2.05203 11.8333 2.56675 11.8333C3.08149 11.8333 3.50007 11.4147 3.50007 10.9C3.50007 10.3853 3.08147 9.96667 2.56675 9.96667ZM2.56675 11.3667C2.30939 11.3667 2.10007 11.1574 2.10007 10.9C2.10007 10.6426 2.30936 10.4333 2.56675 10.4333C2.82411 10.4333 3.03342 10.6426 3.03342 10.9C3.03342 11.1574 2.82411 11.3667 2.56675 11.3667Z" fill="#6C63FF"/>
<path d="M3.24364 12.3H1.88985C1.4911 12.3 1.16675 12.6157 1.16675 13.0035V13.6186C1.16675 13.7019 1.21107 13.7789 1.28318 13.8206C1.67425 14.047 2.11804 14.1667 2.56675 14.1667C3.01546 14.1667 3.45925 14.047 3.85032 13.8206C3.92243 13.7791 3.96675 13.7019 3.96675 13.6188V13.0037C3.96675 12.6157 3.6424 12.3 3.24364 12.3ZM3.50007 13.4795C2.91932 13.7688 2.21418 13.7688 1.6334 13.4795V13.0037C1.6334 12.8731 1.74843 12.7667 1.88983 12.7667H3.24362C3.38501 12.7667 3.50005 12.8731 3.50005 13.0037V13.4795H3.50007Z" fill="#6C63FF"/>
<path d="M8.16665 6C6.75147 6 5.59998 7.1515 5.59998 8.56668C5.59998 9.98185 6.75147 11.1334 8.16665 11.1334C9.58182 11.1334 10.7333 9.98185 10.7333 8.56668C10.7333 7.1515 9.58179 6 8.16665 6ZM8.16665 10.6667C7.00861 10.6667 6.06665 9.72471 6.06665 8.56668C6.06665 7.40864 7.00861 6.46668 8.16665 6.46668C9.32468 6.46668 10.2666 7.40864 10.2666 8.56668C10.2666 9.72471 9.32468 10.6667 8.16665 10.6667Z" fill="#6C63FF"/>
<path d="M8.16672 6.93332C7.65198 6.93332 7.2334 7.35192 7.2334 7.86664C7.2334 8.38136 7.652 8.79997 8.16672 8.79997C8.68144 8.79997 9.10005 8.38139 9.10005 7.86667C9.10005 7.35195 8.68144 6.93332 8.16672 6.93332ZM8.16672 8.33332C7.90936 8.33332 7.70005 8.12403 7.70005 7.86664C7.70005 7.60928 7.90934 7.39997 8.16672 7.39997C8.42411 7.39997 8.6334 7.60925 8.6334 7.86664C8.63337 8.12403 8.42408 8.33332 8.16672 8.33332Z" fill="#6C63FF"/>
<path d="M8.84362 9.26667H7.48983C7.09107 9.26667 6.76672 9.58238 6.76672 9.97017V10.5852C6.76672 10.6685 6.81105 10.7455 6.88315 10.7873C7.27422 11.0136 7.71801 11.1333 8.16672 11.1333C8.61543 11.1333 9.05922 11.0136 9.45029 10.7873C9.5224 10.7458 9.56672 10.6685 9.56672 10.5855V9.97042C9.56672 9.58235 9.24237 9.26667 8.84362 9.26667ZM9.10005 10.4462C8.51929 10.7355 7.81415 10.7355 7.23337 10.4462V9.97042C7.23337 9.83974 7.34841 9.73335 7.4898 9.73335H8.84359C8.98498 9.73335 9.10002 9.83974 9.10002 9.97042V10.4462H9.10005Z" fill="#6C63FF"/>
<path d="M6.01086 8.41476C5.9271 8.31722 5.77986 8.30555 5.68186 8.38933L4.06486 9.77301C3.96686 9.85676 3.95543 10.004 4.03918 10.102C4.08539 10.1559 4.15072 10.1837 4.21651 10.1837C4.27018 10.1837 4.32408 10.1653 4.36818 10.1274L5.98518 8.74376C6.08321 8.66 6.09464 8.51276 6.01086 8.41476Z" fill="#6C63FF"/>
<path d="M11.1532 12.1602L9.75325 10.2936C9.676 10.1902 9.52972 10.1699 9.42658 10.2469C9.32343 10.3241 9.30268 10.4704 9.3799 10.5733L10.7799 12.44C10.8259 12.5011 10.8959 12.5333 10.9668 12.5333C11.0153 12.5333 11.0646 12.5181 11.1066 12.4866C11.2097 12.4094 11.2305 12.2631 11.1532 12.1602Z" fill="#6C63FF"/>
<path d="M9.23829 15.405C9.16104 15.3018 9.01475 15.2811 8.91161 15.3583L7.60822 16.3357C7.50508 16.413 7.48432 16.5593 7.56154 16.6621C7.60751 16.7233 7.67751 16.7555 7.74844 16.7555C7.79719 16.7555 7.84619 16.7401 7.88822 16.7088L9.19161 15.7314C9.29476 15.6542 9.31554 15.5079 9.23829 15.405Z" fill="#6C63FF"/>
<path d="M3.2667 17.2H1.63335C1.50456 17.2 1.40002 17.3043 1.40002 17.4333C1.40002 17.5624 1.50456 17.6667 1.63335 17.6667H3.26667C3.39546 17.6667 3.5 17.5624 3.5 17.4333C3.5 17.3043 3.39549 17.2 3.2667 17.2Z" fill="#6C63FF"/>
<path d="M2.56665 6C2.05191 6 1.6333 6.41861 1.6333 6.93332C1.6333 7.44807 2.05191 7.86665 2.56662 7.86665C3.08137 7.86665 3.49995 7.44804 3.49995 6.93332C3.49998 6.41861 3.08137 6 2.56665 6ZM2.56665 7.4C2.30929 7.4 2.09998 7.19071 2.09998 6.93332C2.09998 6.67596 2.30927 6.46665 2.56665 6.46665C2.82401 6.46665 3.03333 6.67594 3.03333 6.93332C3.0333 7.19071 2.82401 7.4 2.56665 7.4Z" fill="#6C63FF"/>
<path d="M2.5667 7.40001C2.43791 7.40001 2.33337 7.5043 2.33337 7.63333V9.26665C2.33337 9.39569 2.43791 9.49998 2.5667 9.49998C2.69549 9.49998 2.80002 9.39569 2.80002 9.26665V7.63333C2.80002 7.5043 2.69549 7.40001 2.5667 7.40001Z" fill="#6C63FF"/>
</g>
<defs>
<clipPath id="clip0">
<rect width="14" height="14" fill="white" transform="translate(0 6)"/>
</clipPath>
</defs>
</svg>
