<svg width="16" height="11" viewBox="0 0 16 11" fill="none" xmlns="http://www.w3.org/2000/svg">
<path d="M8 0C8.83333 0 9.57292 0.239583 10.2188 0.71875C10.8854 1.17708 11.375 1.78125 11.6875 2.53125C12.5625 2.57292 13.3125 2.90625 13.9375 3.53125C14.5625 4.15625 14.8958 4.90625 14.9375 5.78125C15.6458 6.40625 16 7.14583 16 8C16 8.83333 15.7083 9.54167 15.125 10.125C14.5417 10.7083 13.8333 11 13 11H3C2.16667 11 1.45833 10.7083 0.875 10.125C0.291667 9.54167 0 8.83333 0 8C0 7.33333 0.197917 6.73958 0.59375 6.21875C1.01042 5.69792 1.54167 5.35417 2.1875 5.1875C2.33333 4.75 2.57292 4.39583 2.90625 4.125C3.23958 3.83333 3.63542 3.64583 4.09375 3.5625C4.21875 2.5625 4.64583 1.71875 5.375 1.03125C6.10417 0.34375 6.97917 0 8 0ZM8 1C7.16667 1 6.45833 1.29167 5.875 1.875C5.29167 2.45833 5 3.16667 5 4V4.5H4.5C4.14583 4.5 3.83333 4.61458 3.5625 4.84375C3.29167 5.05208 3.11458 5.32292 3.03125 5.65625L2.96875 6L2.625 6.0625C2.16667 6.125 1.78125 6.34375 1.46875 6.71875C1.15625 7.07292 1 7.5 1 8C1 8.5625 1.1875 9.04167 1.5625 9.4375C1.95833 9.8125 2.4375 10 3 10H13C13.5625 10 14.0312 9.8125 14.4062 9.4375C14.8021 9.04167 15 8.5625 15 8C15 7.33333 14.7292 6.80208 14.1875 6.40625L14 6.25V6C14 5.3125 13.75 4.72917 13.25 4.25C12.7708 3.75 12.1875 3.5 11.5 3.5H11.3438H11L10.875 3.125C10.6875 2.5 10.3333 1.98958 9.8125 1.59375C9.29167 1.19792 8.6875 1 8 1ZM8 3.8125L8.375 4.125L10.375 6.125L9.625 6.875L8.5 5.71875V9H7.5V5.71875L6.375 6.875L5.625 6.125L7.625 4.125L8 3.8125Z" fill="#FAFBFF"/>
</svg>