<svg width="12" height="14" viewBox="0 0 12 14" fill="none" xmlns="http://www.w3.org/2000/svg">
<path fill-rule="evenodd" clip-rule="evenodd" d="M4.59067 12.2497H1.80268C1.49472 12.2497 1.24508 11.9885 1.24508 11.6663V2.33301C1.24508 2.01084 1.49472 1.74967 1.80268 1.74967H4.59067C4.89862 1.74967 5.14827 1.48851 5.14827 1.16634C5.14827 0.844175 4.89862 0.583008 4.59067 0.583008H1.80268C0.878818 0.583008 0.129883 1.36651 0.129883 2.33301V11.6663C0.129883 12.6328 0.878818 13.4163 1.80268 13.4163H4.59067C4.89862 13.4163 5.14827 13.1552 5.14827 12.833C5.14827 12.5108 4.89862 12.2497 4.59067 12.2497ZM8.09958 8.92053C7.88182 9.14834 7.88182 9.51768 8.09958 9.74549C8.31733 9.97329 8.67038 9.97329 8.88814 9.74549L11.1185 7.41215C11.172 7.35623 11.2123 7.29177 11.2395 7.22296C11.2668 7.15419 11.2818 7.07877 11.2818 6.99967C11.2818 6.92058 11.2668 6.84516 11.2395 6.77639C11.2123 6.70758 11.172 6.64312 11.1185 6.5872L8.88814 4.25386C8.67038 4.02606 8.31733 4.02606 8.09958 4.25386C7.88182 4.48167 7.88182 4.85101 8.09958 5.07882L9.37809 6.41634H4.03307C3.72512 6.41634 3.47547 6.67751 3.47547 6.99967C3.47547 7.32184 3.72512 7.58301 4.03307 7.58301H9.37809L8.09958 8.92053Z" fill="#565656"/>
<mask id="mask0" mask-type="alpha" maskUnits="userSpaceOnUse" x="0" y="0" width="12" height="14">
<path fill-rule="evenodd" clip-rule="evenodd" d="M4.59067 12.2497H1.80268C1.49472 12.2497 1.24508 11.9885 1.24508 11.6663V2.33301C1.24508 2.01084 1.49472 1.74967 1.80268 1.74967H4.59067C4.89862 1.74967 5.14827 1.48851 5.14827 1.16634C5.14827 0.844175 4.89862 0.583008 4.59067 0.583008H1.80268C0.878818 0.583008 0.129883 1.36651 0.129883 2.33301V11.6663C0.129883 12.6328 0.878818 13.4163 1.80268 13.4163H4.59067C4.89862 13.4163 5.14827 13.1552 5.14827 12.833C5.14827 12.5108 4.89862 12.2497 4.59067 12.2497ZM8.09958 8.92053C7.88182 9.14834 7.88182 9.51768 8.09958 9.74549C8.31733 9.97329 8.67038 9.97329 8.88814 9.74549L11.1185 7.41215C11.172 7.35623 11.2123 7.29177 11.2395 7.22296C11.2668 7.15419 11.2818 7.07877 11.2818 6.99967C11.2818 6.92058 11.2668 6.84516 11.2395 6.77639C11.2123 6.70758 11.172 6.64312 11.1185 6.5872L8.88814 4.25386C8.67038 4.02606 8.31733 4.02606 8.09958 4.25386C7.88182 4.48167 7.88182 4.85101 8.09958 5.07882L9.37809 6.41634H4.03307C3.72512 6.41634 3.47547 6.67751 3.47547 6.99967C3.47547 7.32184 3.72512 7.58301 4.03307 7.58301H9.37809L8.09958 8.92053Z" fill="white"/>
</mask>
<g mask="url(#mask0)">
</g>
</svg>
