<svg width="21" height="21" viewBox="0 0 21 21" fill="none" xmlns="http://www.w3.org/2000/svg">
<path fill-rule="evenodd" clip-rule="evenodd" d="M18.6504 14.6031C19.2888 13.3392 19.6207 11.9383 19.6172 10.5182V10.0386C19.3598 5.34649 15.6555 1.6422 11.0163 1.38626L10.4826 1.3848C9.06454 1.3811 7.66321 1.71299 6.39522 2.35345C3.30457 3.8981 1.34931 7.05981 1.34797 10.519C1.34462 11.8008 1.61534 13.0687 2.14017 14.2368L0.435771 19.35C0.185208 20.1017 0.900342 20.8168 1.65203 20.5662L6.76522 18.8618C7.93333 19.3867 9.20137 19.6574 10.4851 19.654C13.9422 19.6527 17.1039 17.6974 18.6504 14.6031ZM6.52467 16.9149L2.86829 18.1337L4.08709 14.4773C4.16816 14.2341 4.14874 13.9686 4.03316 13.7397C3.52925 12.7421 3.26813 11.6396 3.27104 10.5219C3.2721 7.78881 4.81573 5.29273 7.2586 4.07182C8.25987 3.56608 9.36242 3.30496 10.4801 3.30787L10.9634 3.30787C14.5708 3.50836 17.4936 6.43116 17.6956 10.0916L17.6941 10.5219C17.697 11.6396 17.4359 12.7421 16.932 13.7397C15.7093 16.1863 13.2132 17.7299 10.4822 17.7309C9.36242 17.7339 8.25987 17.4727 7.26225 16.9688C7.03341 16.8532 6.76789 16.8338 6.52467 16.9149Z" fill="#565656"/>
<path fill-rule="evenodd" clip-rule="evenodd" d="M17.0002 8C19.2094 8 21.0002 6.20914 21.0002 4C21.0002 1.79086 19.2094 0 17.0002 0C14.7911 0 13.0002 1.79086 13.0002 4C13.0002 6.20914 14.7911 8 17.0002 8Z" fill="#FF3E3E"/>
</svg>
