<svg width="20" height="20" viewBox="0 0 20 20" fill="none" xmlns="http://www.w3.org/2000/svg">
<path fill-rule="evenodd" clip-rule="evenodd" d="M18.6504 13.6031C19.2888 12.3392 19.6207 10.9383 19.6172 9.51819V9.03864C19.3598 4.34649 15.6555 0.642196 11.0163 0.386256L10.4826 0.384796C9.06454 0.381096 7.66321 0.712991 6.39522 1.35345C3.30457 2.8981 1.34931 6.05981 1.34797 9.51904C1.34462 10.8008 1.61534 12.0687 2.14017 13.2368L0.435771 18.35C0.185208 19.1017 0.900342 19.8168 1.65203 19.5662L6.76522 17.8618C7.93333 18.3867 9.20137 18.6574 10.4851 18.654C13.9422 18.6527 17.1039 16.6974 18.6504 13.6031ZM6.52467 15.9149L2.86829 17.1337L4.08709 13.4773C4.16816 13.2341 4.14874 12.9686 4.03316 12.7397C3.52925 11.7421 3.26813 10.6396 3.27104 9.52192C3.2721 6.78881 4.81573 4.29273 7.2586 3.07182C8.25987 2.56608 9.36242 2.30496 10.4801 2.30787L10.9634 2.30787C14.5708 2.50836 17.4936 5.43116 17.6956 9.09161L17.6941 9.52192C17.697 10.6396 17.4359 11.7421 16.932 12.7397C15.7093 15.1863 13.2132 16.7299 10.4822 16.7309C9.36242 16.7339 8.25987 16.4727 7.26225 15.9688C7.03341 15.8532 6.76789 15.8338 6.52467 15.9149Z" fill="#565656"/>
</svg>
