<svg width="72" height="25" viewBox="0 0 72 25" fill="none" xmlns="http://www.w3.org/2000/svg">
<path d="M25.76 18C25.6533 18 25.5627 17.968 25.488 17.904C25.424 17.8293 25.392 17.7387 25.392 17.632V7.184C25.392 7.06667 25.424 6.976 25.488 6.912C25.5627 6.83733 25.6533 6.8 25.76 6.8H29.824C31.0293 6.8 31.9787 7.09333 32.672 7.68C33.3653 8.26667 33.712 9.11467 33.712 10.224C33.712 11.3333 33.3653 12.1813 32.672 12.768C31.9893 13.344 31.04 13.632 29.824 13.632H26.992V17.632C26.992 17.7387 26.9547 17.8293 26.88 17.904C26.8053 17.968 26.7147 18 26.608 18H25.76ZM29.744 12.288C30.5227 12.288 31.1093 12.112 31.504 11.76C31.9093 11.408 32.112 10.896 32.112 10.224C32.112 9.552 31.9147 9.04 31.52 8.688C31.1253 8.32533 30.5333 8.144 29.744 8.144H26.976V12.288H29.744ZM38.7483 18.16C37.5749 18.16 36.6629 17.8293 36.0123 17.168C35.3723 16.5067 35.0309 15.6267 34.9883 14.528L34.9723 13.84L34.9883 13.152C35.0309 12.064 35.3776 11.1893 36.0283 10.528C36.6789 9.856 37.5856 9.52 38.7483 9.52C39.9109 9.52 40.8176 9.856 41.4683 10.528C42.1189 11.1893 42.4656 12.064 42.5083 13.152C42.5189 13.2693 42.5243 13.4987 42.5243 13.84C42.5243 14.1813 42.5189 14.4107 42.5083 14.528C42.4656 15.6267 42.1189 16.5067 41.4683 17.168C40.8283 17.8293 39.9216 18.16 38.7483 18.16ZM38.7483 16.928C39.4203 16.928 39.9483 16.7147 40.3323 16.288C40.7269 15.8613 40.9403 15.248 40.9723 14.448C40.9829 14.3413 40.9883 14.1387 40.9883 13.84C40.9883 13.5413 40.9829 13.3387 40.9723 13.232C40.9403 12.432 40.7269 11.8187 40.3323 11.392C39.9483 10.9653 39.4203 10.752 38.7483 10.752C38.0763 10.752 37.5429 10.9653 37.1483 11.392C36.7536 11.8187 36.5456 12.432 36.5243 13.232L36.5082 13.84L36.5243 14.448C36.5456 15.248 36.7536 15.8613 37.1483 16.288C37.5429 16.7147 38.0763 16.928 38.7483 16.928ZM44.7678 8.128C44.6611 8.128 44.5704 8.096 44.4958 8.032C44.4318 7.95733 44.3997 7.86667 44.3997 7.76V6.896C44.3997 6.78933 44.4318 6.69867 44.4958 6.624C44.5704 6.54933 44.6611 6.512 44.7678 6.512H45.7758C45.8824 6.512 45.9731 6.54933 46.0478 6.624C46.1224 6.69867 46.1598 6.78933 46.1598 6.896V7.76C46.1598 7.86667 46.1224 7.95733 46.0478 8.032C45.9731 8.096 45.8824 8.128 45.7758 8.128H44.7678ZM44.8958 18C44.7891 18 44.6984 17.968 44.6238 17.904C44.5598 17.8293 44.5278 17.7387 44.5278 17.632V10.048C44.5278 9.94133 44.5598 9.856 44.6238 9.792C44.6984 9.71733 44.7891 9.68 44.8958 9.68H45.6638C45.7704 9.68 45.8558 9.71733 45.9198 9.792C45.9944 9.856 46.0318 9.94133 46.0318 10.048V17.632C46.0318 17.7387 45.9944 17.8293 45.9198 17.904C45.8558 17.968 45.7704 18 45.6638 18H44.8958ZM48.7708 18C48.6641 18 48.5734 17.968 48.4988 17.904C48.4348 17.8293 48.4028 17.7387 48.4028 17.632V10.048C48.4028 9.94133 48.4348 9.856 48.4988 9.792C48.5734 9.71733 48.6641 9.68 48.7708 9.68H49.5228C49.6294 9.68 49.7148 9.71733 49.7788 9.792C49.8534 9.856 49.8908 9.94133 49.8908 10.048V10.752C50.2001 10.3573 50.5628 10.0533 50.9788 9.84C51.4054 9.62667 51.9334 9.52 52.5628 9.52C53.5868 9.52 54.3814 9.85067 54.9468 10.512C55.5228 11.1627 55.8108 12.032 55.8108 13.12V17.632C55.8108 17.7387 55.7734 17.8293 55.6988 17.904C55.6348 17.968 55.5494 18 55.4427 18H54.6428C54.5361 18 54.4454 17.968 54.3708 17.904C54.3068 17.8293 54.2748 17.7387 54.2748 17.632V13.2C54.2748 12.4427 54.0881 11.856 53.7148 11.44C53.3521 11.024 52.8241 10.816 52.1308 10.816C51.4588 10.816 50.9254 11.0293 50.5308 11.456C50.1361 11.872 49.9388 12.4533 49.9388 13.2V17.632C49.9388 17.7387 49.9014 17.8293 49.8268 17.904C49.7628 17.968 49.6774 18 49.5707 18H48.7708ZM61.2445 18C59.5592 18 58.7165 17.0613 58.7165 15.184V10.96H57.4685C57.3618 10.96 57.2712 10.928 57.1965 10.864C57.1325 10.7893 57.1005 10.6987 57.1005 10.592V10.048C57.1005 9.94133 57.1325 9.856 57.1965 9.792C57.2712 9.71733 57.3618 9.68 57.4685 9.68H58.7165V7.008C58.7165 6.90133 58.7485 6.816 58.8125 6.752C58.8872 6.67733 58.9778 6.64 59.0845 6.64H59.8365C59.9432 6.64 60.0285 6.67733 60.0925 6.752C60.1672 6.816 60.2045 6.90133 60.2045 7.008V9.68H62.1885C62.2952 9.68 62.3805 9.71733 62.4445 9.792C62.5192 9.856 62.5565 9.94133 62.5565 10.048V10.592C62.5565 10.6987 62.5192 10.7893 62.4445 10.864C62.3805 10.928 62.2952 10.96 62.1885 10.96H60.2045V15.072C60.2045 15.6053 60.2952 16.0107 60.4765 16.288C60.6578 16.5547 60.9565 16.688 61.3725 16.688H62.3485C62.4552 16.688 62.5405 16.7253 62.6045 16.8C62.6792 16.864 62.7165 16.9493 62.7165 17.056V17.632C62.7165 17.7387 62.6792 17.8293 62.6045 17.904C62.5405 17.968 62.4552 18 62.3485 18H61.2445ZM67.1265 18.16C66.3798 18.16 65.7505 18.0427 65.2385 17.808C64.7372 17.5627 64.3585 17.2853 64.1025 16.976C63.8572 16.6667 63.7345 16.4107 63.7345 16.208C63.7345 16.1013 63.7718 16.0213 63.8465 15.968C63.9318 15.904 64.0172 15.872 64.1025 15.872H64.8225C64.9292 15.872 65.0252 15.9253 65.1105 16.032C65.3665 16.3307 65.6438 16.5653 65.9425 16.736C66.2412 16.9067 66.6412 16.992 67.1425 16.992C67.6972 16.992 68.1452 16.8853 68.4865 16.672C68.8385 16.448 69.0145 16.144 69.0145 15.76C69.0145 15.504 68.9398 15.296 68.7905 15.136C68.6518 14.9653 68.4065 14.8213 68.0545 14.704C67.7132 14.576 67.2012 14.4373 66.5185 14.288C65.5905 14.0853 64.9292 13.792 64.5345 13.408C64.1505 13.024 63.9585 12.528 63.9585 11.92C63.9585 11.5147 64.0758 11.1307 64.3105 10.768C64.5558 10.3947 64.9078 10.096 65.3665 9.872C65.8358 9.63733 66.3958 9.52 67.0465 9.52C67.7292 9.52 68.3105 9.632 68.7905 9.856C69.2705 10.08 69.6278 10.3467 69.8625 10.656C70.1078 10.9547 70.2305 11.2053 70.2305 11.408C70.2305 11.504 70.1932 11.584 70.1185 11.648C70.0545 11.712 69.9745 11.744 69.8785 11.744H69.2065C69.0785 11.744 68.9718 11.6907 68.8865 11.584C68.7158 11.3813 68.5665 11.2267 68.4385 11.12C68.3212 11.0027 68.1452 10.9013 67.9105 10.816C67.6865 10.7307 67.3985 10.688 67.0465 10.688C66.5345 10.688 66.1398 10.8 65.8625 11.024C65.5852 11.2373 65.4465 11.52 65.4465 11.872C65.4465 12.096 65.5052 12.288 65.6225 12.448C65.7398 12.5973 65.9638 12.736 66.2945 12.864C66.6358 12.992 67.1265 13.1253 67.7665 13.264C68.7798 13.4773 69.4945 13.7867 69.9105 14.192C70.3372 14.5867 70.5505 15.0933 70.5505 15.712C70.5505 16.1707 70.4172 16.5867 70.1505 16.96C69.8838 17.3333 69.4892 17.6267 68.9665 17.84C68.4545 18.0533 67.8412 18.16 67.1265 18.16Z" fill="#565656"/>
<path fill-rule="evenodd" clip-rule="evenodd" d="M12.1889 7H9.55882C9.74411 8.24393 9.90663 9.94258 9.63341 10.9746C9.80535 10.9884 9.98514 11 10.1901 11C11.2688 11 12.0539 10.7742 12.3271 10.6224C12.5038 10.096 12.437 8.57842 12.1889 7ZM10.5147 12.2202C9.79333 12.2758 8.98147 12.2313 8.31299 12.0007C7.29083 12.3143 5.85892 12.3339 4.89221 12C4.34735 12.1679 3.64701 12.266 2.86765 12.2359V18H6.05392V15.3862H7.32843V18H10.5147V12.2202ZM1.06819 10.7033C1.27978 10.8181 1.89313 11 2.87259 11C3.19829 11 3.49387 10.9784 3.76093 10.9461C3.51606 9.8948 3.65791 8.22543 3.82353 7H1.1625C0.933478 8.62235 0.884346 10.1792 1.06819 10.7033ZM4.88229 10.7065C5.62053 11.1439 7.76848 11.0722 8.51108 10.6255C8.67441 10.0987 8.61271 8.57981 8.38332 7H4.96867C4.75889 8.62378 4.71388 10.182 4.88229 10.7065ZM12.9583 11.6469C12.7562 11.8583 12.4323 12.0263 12.0443 12.1544V20H1.33832V12.2167C0.91677 12.0872 0.572842 11.8996 0.37679 11.6469C-0.470987 10.5486 0.37679 6 0.37679 6H12.9583C12.9583 6 13.9124 10.6487 12.9583 11.6469ZM3.82353 16H4.77941V13H3.82353V16ZM8.60294 16H9.55882V13H8.60294V16Z" fill="#565656"/>
</svg>
