<svg width="14" height="14" viewBox="0 0 14 14" fill="none" xmlns="http://www.w3.org/2000/svg">
<path fill-rule="evenodd" clip-rule="evenodd" d="M6.00016 11.6663C2.87055 11.6663 0.333496 9.12929 0.333496 5.99967C0.333496 2.87006 2.87055 0.333008 6.00016 0.333008C9.12978 0.333008 11.6668 2.87006 11.6668 5.99967C11.6668 7.32425 11.2124 8.54269 10.4508 9.50755L13.4716 12.5283C13.7319 12.7886 13.7319 13.2107 13.4716 13.4711C13.2112 13.7314 12.7891 13.7314 12.5288 13.4711L9.50804 10.4504C8.54317 11.2119 7.32474 11.6663 6.00016 11.6663ZM9.10666 9.02085C9.09134 9.03364 9.07647 9.04722 9.06209 9.0616C9.04771 9.07598 9.03413 9.09086 9.02134 9.10617C8.24079 9.86541 7.17508 10.333 6.00016 10.333C3.60693 10.333 1.66683 8.39291 1.66683 5.99967C1.66683 3.60644 3.60693 1.66634 6.00016 1.66634C8.3934 1.66634 10.3335 3.60644 10.3335 5.99967C10.3335 7.17459 9.8659 8.2403 9.10666 9.02085Z" fill="#646464"/>
<mask id="mask0" mask-type="alpha" maskUnits="userSpaceOnUse" x="0" y="0" width="14" height="14">
<path fill-rule="evenodd" clip-rule="evenodd" d="M6.00016 11.6663C2.87055 11.6663 0.333496 9.12929 0.333496 5.99967C0.333496 2.87006 2.87055 0.333008 6.00016 0.333008C9.12978 0.333008 11.6668 2.87006 11.6668 5.99967C11.6668 7.32425 11.2124 8.54269 10.4508 9.50755L13.4716 12.5283C13.7319 12.7886 13.7319 13.2107 13.4716 13.4711C13.2112 13.7314 12.7891 13.7314 12.5288 13.4711L9.50804 10.4504C8.54317 11.2119 7.32474 11.6663 6.00016 11.6663ZM9.10666 9.02085C9.09134 9.03364 9.07647 9.04722 9.06209 9.0616C9.04771 9.07598 9.03413 9.09086 9.02134 9.10617C8.24079 9.86541 7.17508 10.333 6.00016 10.333C3.60693 10.333 1.66683 8.39291 1.66683 5.99967C1.66683 3.60644 3.60693 1.66634 6.00016 1.66634C8.3934 1.66634 10.3335 3.60644 10.3335 5.99967C10.3335 7.17459 9.8659 8.2403 9.10666 9.02085Z" fill="white"/>
</mask>
<g mask="url(#mask0)">
</g>
</svg>
