<svg width="19" height="21" viewBox="0 0 19 21" fill="none" xmlns="http://www.w3.org/2000/svg">
<path fill-rule="evenodd" clip-rule="evenodd" d="M18.3468 16.2021C18.1431 16.0211 16.4884 14.3966 16.4884 9.27061C16.4495 7.51822 15.7748 5.83361 14.5803 4.50668C13.9392 3.77194 13.1455 3.17326 12.2498 2.74879C12.2538 2.706 12.2538 2.66295 12.2498 2.62016C12.2498 1.17309 11.0262 0 9.51679 0C8.0074 0 6.7838 1.17309 6.7838 2.62016C6.77977 2.66295 6.77977 2.706 6.7838 2.74879C5.88808 3.17326 5.0944 3.77194 4.45331 4.50668C3.25878 5.83361 2.58404 7.51822 2.54518 9.27061C2.54518 14.3871 0.89545 16.0068 0.691718 16.1878C0.132666 16.5085 -0.127417 17.1524 0.0606456 17.7504C0.259062 18.3768 0.86871 18.7996 1.55137 18.7842H6.41112C6.13727 19.0586 6.13727 19.4911 6.41112 19.7655C7.21275 20.5548 8.31306 21 9.46213 21C10.6112 21 11.7115 20.5548 12.5131 19.7655C12.7685 19.4951 12.7685 19.0832 12.5131 18.8128H17.4375C18.1202 18.8282 18.7298 18.4054 18.9282 17.779C19.1314 17.1878 18.8925 16.5396 18.3468 16.2021ZM9.5317 1.41012C10.0519 1.45265 10.5022 1.77368 10.6945 2.23905C9.92751 2.08596 9.13589 2.08596 8.36894 2.23905C8.56118 1.77368 9.0115 1.45265 9.5317 1.41012ZM9.5317 3.55389C12.6821 3.55389 14.9977 6.60281 14.9977 9.27061C14.9697 10.8763 15.1653 12.4784 15.5791 14.0345H3.48434C3.89814 12.4784 4.09365 10.8763 4.06572 9.27061C4.06572 6.60281 6.38131 3.55389 9.5317 3.55389ZM9.49691 19.5797C8.75051 19.5874 8.03297 19.3037 7.50929 18.7937H11.4349C10.9236 19.2923 10.2262 19.5751 9.49691 19.5797ZM1.58118 17.3693C2.20273 16.8567 2.67809 16.2009 2.96258 15.4637H16.1058C16.3903 16.2009 16.8656 16.8567 17.4872 17.3693H1.58118Z" fill="#565656"/>
</svg>
