<svg width="14" height="14" viewBox="0 0 14 14" fill="none" xmlns="http://www.w3.org/2000/svg">
<path fill-rule="evenodd" clip-rule="evenodd" d="M12.2036 1H9.57347C9.75876 2.24393 9.92127 3.94258 9.64806 4.97457C9.81999 4.98844 9.99979 5 10.2047 5C11.2834 5 12.0685 4.77418 12.3418 4.62235C12.5184 4.09595 12.4517 2.57842 12.2036 1ZM10.5294 6.22021C9.80798 6.27576 8.99612 6.23132 8.32764 6.00065C7.30548 6.31431 5.87357 6.33391 4.90686 6C4.362 6.16794 3.66166 6.26595 2.8823 6.2359V12H6.06857V9.38619H7.34308V12H10.5294V6.22021ZM1.08284 4.70328C1.29443 4.81811 1.90778 5 2.88724 5C3.21294 5 3.50852 4.97842 3.77557 4.94605C3.53071 3.8948 3.67256 2.22543 3.83818 1H1.17714C0.948127 2.62235 0.898995 4.17919 1.08284 4.70328ZM4.89694 4.70653C5.63518 5.14391 7.78313 5.07217 8.52573 4.62553C8.68906 4.09867 8.62736 2.57981 8.39797 1H4.98332C4.77354 2.62378 4.72853 4.18198 4.89694 4.70653ZM12.9729 5.6469C12.7709 5.8583 12.447 6.0263 12.0589 6.1544V14H1.35297V6.2167C0.931419 6.0872 0.587491 5.8996 0.391438 5.6469C-0.456339 4.5486 0.391438 0 0.391438 0H12.9729C12.9729 0 13.9271 4.6487 12.9729 5.6469ZM3.83818 10H4.79406V7H3.83818V10ZM8.61759 10H9.57347V7H8.61759V10Z" fill="#565656"/>
</svg>
