<svg width="19" height="19" viewBox="0 0 19 19" fill="none" xmlns="http://www.w3.org/2000/svg">
<g clip-path="url(#clip0)">
<path d="M4.2526 18.6159C4.04444 18.6159 3.83772 18.5509 3.6613 18.4234C3.33267 18.1852 3.17916 17.7758 3.2686 17.3808L4.49092 11.9965L0.345582 8.36111C0.0408715 8.09511 -0.0755331 7.67385 0.0495693 7.28839C0.174672 6.90366 0.515043 6.63128 0.918038 6.59402L6.40283 6.09608L8.57132 1.02139C8.73121 0.648543 9.09536 0.407761 9.49995 0.407761C9.90454 0.407761 10.2687 0.648543 10.4286 1.02052L12.5971 6.09608L18.081 6.59402C18.4848 6.63041 18.8252 6.90366 18.9503 7.28839C19.0754 7.67312 18.9597 8.09511 18.655 8.36111L14.5097 11.9957L15.732 17.3799C15.8216 17.7758 15.6679 18.1852 15.3395 18.4226C15.0117 18.6601 14.5746 18.6784 14.2295 18.4709L9.49995 15.6446L4.77041 18.4725C4.61052 18.5675 4.43236 18.6159 4.2526 18.6159ZM9.49995 14.4271C9.6797 14.4271 9.85771 14.4753 10.0178 14.5703L14.4813 17.2399L13.3277 12.158C13.2453 11.7963 13.3681 11.4187 13.6476 11.174L17.5617 7.74125L12.3832 7.271C12.0104 7.23693 11.6897 7.00253 11.5441 6.65897L9.49995 1.86999L7.45337 6.65969C7.30928 7.00093 6.98862 7.23534 6.61665 7.2694L1.43744 7.73966L5.35142 11.1724C5.63177 11.4178 5.75441 11.7947 5.67135 12.1572L4.51861 17.239L8.98214 14.5703C9.14203 14.4753 9.32019 14.4271 9.49995 14.4271ZM6.36093 6.19422C6.36093 6.19422 6.36093 6.19509 6.36006 6.19581L6.36093 6.19422ZM12.6374 6.1919L12.6382 6.19349C12.6382 6.19262 12.6382 6.19262 12.6374 6.1919Z" fill="#979797"/>
</g>
<defs>
<clipPath id="clip0">
<rect width="19" height="19" fill="white"/>
</clipPath>
</defs>
</svg>
