<svg width="24" height="24" viewBox="0 0 24 24" fill="none" xmlns="http://www.w3.org/2000/svg">
<path d="M13.44 1.4592H12.4768C12.3908 1.4592 12.3083 1.42503 12.2475 1.3642C12.1866 1.30338 12.1525 1.22089 12.1525 1.13487C12.1525 1.04886 12.1866 0.966362 12.2475 0.905539C12.3083 0.844717 12.3908 0.810547 12.4768 0.810547H13.44C13.526 0.810547 13.6085 0.844717 13.6694 0.905539C13.7302 0.966362 13.7644 1.04886 13.7644 1.13487C13.7644 1.22089 13.7302 1.30338 13.6694 1.3642C13.6085 1.42503 13.526 1.4592 13.44 1.4592Z" fill="#DA04F2"/>
<path d="M21.7298 18.3241H2.2703C1.84038 18.3235 1.42821 18.1525 1.12421 17.8485C0.820211 17.5445 0.649197 17.1324 0.648682 16.7024V2.43217C0.649197 2.00225 0.820211 1.59008 1.12421 1.28608C1.42821 0.982076 1.84038 0.811062 2.2703 0.810547H6.99247C7.07848 0.810547 7.16097 0.844717 7.2218 0.905539C7.28262 0.966362 7.31679 1.04886 7.31679 1.13487C7.31679 1.22089 7.28262 1.30338 7.2218 1.3642C7.16097 1.42503 7.07848 1.4592 6.99247 1.4592H2.2703C2.01225 1.4592 1.76478 1.5617 1.58231 1.74417C1.39984 1.92664 1.29733 2.17412 1.29733 2.43217V16.7024C1.29733 16.9605 1.39984 17.208 1.58231 17.3904C1.76478 17.5729 2.01225 17.6754 2.2703 17.6754H21.7298C21.9878 17.6754 22.2353 17.5729 22.4178 17.3904C22.6002 17.208 22.7027 16.9605 22.7027 16.7024V2.43217C22.7027 2.17412 22.6002 1.92664 22.4178 1.74417C22.2353 1.5617 21.9878 1.4592 21.7298 1.4592H15.7103C15.6243 1.4592 15.5418 1.42503 15.481 1.3642C15.4201 1.30338 15.386 1.22089 15.386 1.13487C15.386 1.04886 15.4201 0.966362 15.481 0.905539C15.5418 0.844717 15.6243 0.810547 15.7103 0.810547H21.7298C22.1597 0.811062 22.5719 0.982076 22.8759 1.28608C23.1799 1.59008 23.3509 2.00225 23.3514 2.43217V16.7024C23.3509 17.1324 23.1799 17.5445 22.8759 17.8485C22.5719 18.1525 22.1597 18.3235 21.7298 18.3241Z" fill="#DA04F2"/>
<path d="M10.2065 1.4592H9.26268C9.17666 1.4592 9.09417 1.42503 9.03335 1.3642C8.97252 1.30338 8.93835 1.22089 8.93835 1.13487C8.93835 1.04886 8.97252 0.966362 9.03335 0.905539C9.09417 0.844717 9.17666 0.810547 9.26268 0.810547H10.2065C10.2925 0.810547 10.375 0.844717 10.4358 0.905539C10.4966 0.966362 10.5308 1.04886 10.5308 1.13487C10.5308 1.22089 10.4966 1.30338 10.4358 1.3642C10.375 1.42503 10.2925 1.4592 10.2065 1.4592Z" fill="#DA04F2"/>
<path d="M23.0271 14.1076H0.973006C0.88699 14.1076 0.804497 14.0735 0.743674 14.0126C0.682851 13.9518 0.648682 13.8693 0.648682 13.7833C0.648682 13.6973 0.682851 13.6148 0.743674 13.554C0.804497 13.4932 0.88699 13.459 0.973006 13.459H23.0271C23.1131 13.459 23.1956 13.4932 23.2564 13.554C23.3172 13.6148 23.3514 13.6973 23.3514 13.7833C23.3514 13.8693 23.3172 13.9518 23.2564 14.0126C23.1956 14.0735 23.1131 14.1076 23.0271 14.1076Z" fill="#DA04F2"/>
<path d="M4.64855 16.0539H3.45958C3.37356 16.0539 3.29107 16.0198 3.23025 15.9589C3.16942 15.8981 3.13525 15.8156 3.13525 15.7296C3.13525 15.6436 3.16942 15.5611 3.23025 15.5003C3.29107 15.4394 3.37356 15.4053 3.45958 15.4053H4.64855C4.73457 15.4053 4.81706 15.4394 4.87788 15.5003C4.9387 15.5611 4.97287 15.6436 4.97287 15.7296C4.97287 15.8156 4.9387 15.8981 4.87788 15.9589C4.81706 16.0198 4.73457 16.0539 4.64855 16.0539Z" fill="#DA04F2"/>
<path d="M15.7496 20.7432C15.6636 20.7432 15.5811 20.7091 15.5203 20.6482C15.4594 20.5874 15.4253 20.5049 15.4253 20.4189V18.3244H8.57846V20.4189C8.57846 20.5049 8.54429 20.5874 8.48347 20.6482C8.42264 20.7091 8.34015 20.7432 8.25413 20.7432C8.16812 20.7432 8.08562 20.7091 8.0248 20.6482C7.96398 20.5874 7.92981 20.5049 7.92981 20.4189V18.0001C7.92981 17.9141 7.96398 17.8316 8.0248 17.7708C8.08562 17.71 8.16812 17.6758 8.25413 17.6758H15.7496C15.8356 17.6758 15.9181 17.71 15.9789 17.7708C16.0398 17.8316 16.0739 17.9141 16.0739 18.0001V20.4189C16.0739 20.5049 16.0398 20.5874 15.9789 20.6482C15.9181 20.7091 15.8356 20.7432 15.7496 20.7432Z" fill="#DA04F2"/>
<path d="M17.3512 23.1894H6.64854C6.56253 23.1894 6.48003 23.1553 6.41921 23.0944C6.35839 23.0336 6.32422 22.9511 6.32422 22.8651V21.6625C6.32465 21.2469 6.48992 20.8484 6.78377 20.5545C7.07762 20.2606 7.47606 20.0952 7.89168 20.0947H16.1081C16.5237 20.0952 16.9222 20.2606 17.216 20.5545C17.5099 20.8484 17.6751 21.2469 17.6756 21.6625V22.8651C17.6756 22.9511 17.6414 23.0336 17.5806 23.0944C17.5198 23.1553 17.4373 23.1894 17.3512 23.1894ZM6.97287 22.5408H17.0269V21.6625C17.0267 21.4189 16.9298 21.1853 16.7575 21.013C16.5853 20.8407 16.3517 20.7437 16.1081 20.7434H7.89168C7.64804 20.7437 7.41449 20.8407 7.24225 21.013C7.07 21.1853 6.97312 21.4189 6.97287 21.6625V22.5408Z" fill="#DA04F2"/>
<path d="M14.2336 9.58743C14.1662 9.58743 14.1004 9.56639 14.0454 9.52723C13.9905 9.48807 13.9491 9.43274 13.9271 9.36895C13.905 9.30517 13.9035 9.2361 13.9225 9.17138C13.9416 9.10665 13.9804 9.04949 14.0335 9.00786L16.0139 7.45921L14.0335 5.91057C13.9696 5.8564 13.9292 5.77962 13.9206 5.6963C13.9121 5.61298 13.9361 5.52958 13.9877 5.46357C14.0392 5.39756 14.1143 5.35405 14.1972 5.34216C14.2801 5.33026 14.3644 5.3509 14.4325 5.39976L16.7397 7.20365C16.7785 7.23398 16.8099 7.27276 16.8315 7.31704C16.8531 7.36133 16.8643 7.40995 16.8643 7.45921C16.8643 7.50848 16.8531 7.5571 16.8315 7.60139C16.8099 7.64567 16.7785 7.68445 16.7397 7.71478L14.4325 9.51867C14.3757 9.56318 14.3057 9.58739 14.2336 9.58743Z" fill="#DA04F2"/>
<path d="M9.76648 9.58762C9.69417 9.58772 9.62392 9.5635 9.56702 9.51886L7.25978 7.71497C7.22095 7.68464 7.18955 7.64586 7.16795 7.60158C7.14636 7.55729 7.13513 7.50867 7.13513 7.4594C7.13513 7.41014 7.14636 7.36151 7.16795 7.31723C7.18955 7.27295 7.22095 7.23417 7.25978 7.20384L9.56767 5.39995C9.63557 5.34896 9.72075 5.32663 9.80493 5.33776C9.88911 5.34889 9.96557 5.39258 10.0179 5.45946C10.0702 5.52634 10.0942 5.61107 10.0847 5.69545C10.0753 5.77983 10.0331 5.85714 9.96724 5.91076L7.98626 7.4594L9.96659 9.00805C10.0197 9.04968 10.0585 9.10684 10.0776 9.17157C10.0967 9.23629 10.0951 9.30536 10.0731 9.36914C10.051 9.43293 10.0097 9.48826 9.95472 9.52742C9.89976 9.56658 9.83396 9.58762 9.76648 9.58762Z" fill="#DA04F2"/>
<path d="M10.9092 11.6025C10.8789 11.6025 10.8488 11.5982 10.8197 11.5899C10.737 11.5662 10.6672 11.5107 10.6255 11.4355C10.5837 11.3603 10.5736 11.2717 10.5972 11.189L12.7783 3.55281C12.7895 3.51137 12.8089 3.47257 12.8353 3.43867C12.8616 3.40478 12.8945 3.37645 12.9319 3.35535C12.9693 3.33424 13.0105 3.32077 13.0531 3.31573C13.0958 3.31068 13.139 3.31415 13.1803 3.32594C13.2216 3.33773 13.2601 3.3576 13.2937 3.3844C13.3272 3.4112 13.3551 3.4444 13.3758 3.48207C13.3964 3.51974 13.4093 3.56113 13.4138 3.60384C13.4183 3.64655 13.4143 3.68973 13.402 3.73086L11.2215 11.3671C11.2022 11.435 11.1612 11.4947 11.1048 11.5372C11.0485 11.5797 10.9798 11.6026 10.9092 11.6025Z" fill="#DA04F2"/>
</svg>
